<svg width="12" height="12" viewBox="0 0 12 12" fill="none" xmlns="http://www.w3.org/2000/svg">
<path d="M5.0063 8.29537L2.70801 5.99653L3.47392 5.23062L5.0063 6.76245L8.06997 3.69824L8.83642 4.4647L5.0063 8.29537Z" fill="#13A41D"/>
<path fill-rule="evenodd" clip-rule="evenodd" d="M0 5.95833C0 2.66771 2.66771 0 5.95833 0C9.24896 0 11.9167 2.66771 11.9167 5.95833C11.9167 9.24896 9.24896 11.9167 5.95833 11.9167C2.66771 11.9167 0 9.24896 0 5.95833ZM5.95833 10.8333C5.31814 10.8333 4.68421 10.7072 4.09275 10.4622C3.50129 10.2173 2.96387 9.85816 2.51119 9.40548C2.0585 8.95279 1.69941 8.41538 1.45442 7.82391C1.20943 7.23245 1.08333 6.59853 1.08333 5.95833C1.08333 5.31814 1.20943 4.68421 1.45442 4.09275C1.69941 3.50129 2.0585 2.96387 2.51119 2.51119C2.96387 2.0585 3.50129 1.69941 4.09275 1.45442C4.68421 1.20943 5.31814 1.08333 5.95833 1.08333C7.25126 1.08333 8.49124 1.59695 9.40548 2.51119C10.3197 3.42543 10.8333 4.6654 10.8333 5.95833C10.8333 7.25126 10.3197 8.49124 9.40548 9.40548C8.49124 10.3197 7.25126 10.8333 5.95833 10.8333Z" fill="#13A41D"/>
</svg>
