<svg width="14" height="15" viewBox="0 0 14 15" fill="none" xmlns="http://www.w3.org/2000/svg">
<g clip-path="url(#clip0_924_1386)">
<path d="M13.3775 4.21007C13.3775 3.21243 13.3775 2.5145 13.3775 2.4483C13.3775 1.70737 12.8501 1.10458 12.2017 1.10458H12.045V2.7469C12.045 2.99427 11.8695 3.19481 11.6531 3.19481C11.4366 3.19481 11.2611 2.99427 11.2611 2.7469C11.2611 2.24408 11.2611 0.858764 11.2611 0.358064C11.2611 0.110699 11.0857 -0.0898438 10.8692 -0.0898438C10.6528 -0.0898438 10.4773 0.110699 10.4773 0.358064V1.10458H7.86451V2.7469C7.86451 2.99427 7.68903 3.19481 7.47259 3.19481C7.25614 3.19481 7.08067 2.99427 7.08067 2.7469C7.08067 2.24408 7.08067 0.858764 7.08067 0.358064C7.08067 0.110699 6.90519 -0.0898438 6.68875 -0.0898438C6.47231 -0.0898438 6.29683 0.110699 6.29683 0.358064V1.10458H3.68404V2.7469C3.68404 2.99427 3.50856 3.19481 3.29212 3.19481C3.07568 3.19481 2.9002 2.99427 2.9002 2.7469C2.9002 2.24408 2.9002 0.858764 2.9002 0.358064C2.9002 0.110699 2.72472 -0.0898438 2.50828 -0.0898438C2.29184 -0.0898438 2.11636 0.110699 2.11636 0.358064V1.10458H1.17576C0.527444 1.10458 0 1.70737 0 2.4483V4.21007H13.3775Z" fill="#979797"/>
<path d="M0 5.10645V12.3625C0 13.1035 0.527444 13.7063 1.17576 13.7063H12.2017C12.8501 13.7063 13.3775 13.1035 13.3775 12.3625C13.3775 12.1707 13.3775 7.97867 13.3775 5.10645C13.1336 5.10645 0.134925 5.10645 0 5.10645ZM3.76242 11.3174H2.92633C2.70988 11.3174 2.53441 11.1169 2.53441 10.8695C2.53441 10.6222 2.70988 10.4216 2.92633 10.4216H3.76242C3.97887 10.4216 4.15434 10.6222 4.15434 10.8695C4.15434 11.1169 3.97887 11.3174 3.76242 11.3174ZM3.76242 9.40636H2.92633C2.70988 9.40636 2.53441 9.20581 2.53441 8.95845C2.53441 8.71108 2.70988 8.51054 2.92633 8.51054H3.76242C3.97887 8.51054 4.15434 8.71108 4.15434 8.95845C4.15434 9.20581 3.97887 9.40636 3.76242 9.40636ZM3.76242 7.49528H2.92633C2.70988 7.49528 2.53441 7.29474 2.53441 7.04738C2.53441 6.80001 2.70988 6.59947 2.92633 6.59947H3.76242C3.97887 6.59947 4.15434 6.80001 4.15434 7.04738C4.15434 7.29474 3.97887 7.49528 3.76242 7.49528ZM7.1068 11.3174H6.2707C6.05426 11.3174 5.87878 11.1169 5.87878 10.8695C5.87878 10.6222 6.05426 10.4216 6.2707 10.4216H7.1068C7.32324 10.4216 7.49872 10.6222 7.49872 10.8695C7.49872 11.1169 7.32324 11.3174 7.1068 11.3174ZM7.1068 9.40636H6.2707C6.05426 9.40636 5.87878 9.20581 5.87878 8.95845C5.87878 8.71108 6.05426 8.51054 6.2707 8.51054H7.1068C7.32324 8.51054 7.49872 8.71108 7.49872 8.95845C7.49872 9.20581 7.32324 9.40636 7.1068 9.40636ZM7.1068 7.49528H6.2707C6.05426 7.49528 5.87878 7.29474 5.87878 7.04738C5.87878 6.80001 6.05426 6.59947 6.2707 6.59947H7.1068C7.32324 6.59947 7.49872 6.80001 7.49872 7.04738C7.49872 7.29474 7.32324 7.49528 7.1068 7.49528ZM10.4512 11.3174H9.61508C9.39863 11.3174 9.22316 11.1169 9.22316 10.8695C9.22316 10.6222 9.39863 10.4216 9.61508 10.4216H10.4512C10.6676 10.4216 10.8431 10.6222 10.8431 10.8695C10.8431 11.1169 10.6676 11.3174 10.4512 11.3174ZM10.4512 9.40636H9.61508C9.39863 9.40636 9.22316 9.20581 9.22316 8.95845C9.22316 8.71108 9.39863 8.51054 9.61508 8.51054H10.4512C10.6676 8.51054 10.8431 8.71108 10.8431 8.95845C10.8431 9.20581 10.6676 9.40636 10.4512 9.40636ZM10.4512 7.49528H9.61508C9.39863 7.49528 9.22316 7.29474 9.22316 7.04738C9.22316 6.80001 9.39863 6.59947 9.61508 6.59947H10.4512C10.6676 6.59947 10.8431 6.80001 10.8431 7.04738C10.8431 7.29474 10.6676 7.49528 10.4512 7.49528Z" fill="#979797"/>
</g>
<defs>
<clipPath id="clip0_924_1386">
<rect width="13.3775" height="14.2136" fill="white"/>
</clipPath>
</defs>
</svg>
