<svg width="26" height="24" viewBox="0 0 26 24" fill="none" xmlns="http://www.w3.org/2000/svg">
<path d="M21.75 0.75C22.7446 0.75 23.6984 1.14509 24.4017 1.84835C25.1049 2.55161 25.5 3.50544 25.5 4.5V19.5C25.5 20.4946 25.1049 21.4484 24.4017 22.1517C23.6984 22.8549 22.7446 23.25 21.75 23.25H4.25C3.25544 23.25 2.30161 22.8549 1.59835 22.1517C0.895088 21.4484 0.5 20.4946 0.5 19.5V4.5C0.5 3.50544 0.895088 2.55161 1.59835 1.84835C2.30161 1.14509 3.25544 0.75 4.25 0.75H21.75ZM13 5.75C11.3424 5.75 9.75268 6.40848 8.58058 7.58058C7.40848 8.75268 6.75 10.3424 6.75 12C6.75 13.6576 7.40848 15.2473 8.58058 16.4194C9.75268 17.5915 11.3424 18.25 13 18.25C14.6576 18.25 16.2473 17.5915 17.4194 16.4194C18.5915 15.2473 19.25 13.6576 19.25 12C19.25 10.3424 18.5915 8.75268 17.4194 7.58058C16.2473 6.40848 14.6576 5.75 13 5.75ZM13 8.25C13.9946 8.25 14.9484 8.64509 15.6517 9.34835C16.3549 10.0516 16.75 11.0054 16.75 12C16.75 12.9946 16.3549 13.9484 15.6517 14.6517C14.9484 15.3549 13.9946 15.75 13 15.75C12.0054 15.75 11.0516 15.3549 10.3483 14.6517C9.64509 13.9484 9.25 12.9946 9.25 12C9.25 11.0054 9.64509 10.0516 10.3483 9.34835C11.0516 8.64509 12.0054 8.25 13 8.25ZM21.75 4.5H20.5C20.1814 4.50035 19.875 4.62235 19.6433 4.84106C19.4116 5.05977 19.2722 5.35869 19.2535 5.67674C19.2349 5.9948 19.3383 6.30797 19.5428 6.55229C19.7473 6.79661 20.0374 6.95362 20.3537 6.99125L20.5 7H21.75C22.0686 6.99965 22.375 6.87765 22.6067 6.65894C22.8384 6.44023 22.9778 6.14131 22.9965 5.82326C23.0151 5.5052 22.9117 5.19203 22.7072 4.94771C22.5027 4.70339 22.2126 4.54638 21.8963 4.50875L21.75 4.5Z" fill="black"/>
</svg>
