<svg width="21" height="21" viewBox="0 0 21 21" fill="none" xmlns="http://www.w3.org/2000/svg">
<path d="M19.39 18.09L5.3 4L1.3 0L0 1.24L3.46 4.7L1.89 9.24V17.24C1.89 17.5052 1.99536 17.7596 2.18289 17.9471C2.37043 18.1346 2.62478 18.24 2.89 18.24H3.89C4.15522 18.24 4.40957 18.1346 4.59711 17.9471C4.78464 17.7596 4.89 17.5052 4.89 17.24V16.24H15L19.73 20.97L21 19.7L19.39 18.09ZM5.39 13.24C4.99218 13.24 4.61064 13.082 4.32934 12.8007C4.04804 12.5194 3.89 12.1378 3.89 11.74C3.89 11.3422 4.04804 10.9606 4.32934 10.6793C4.61064 10.398 4.99218 10.24 5.39 10.24C5.78782 10.24 6.16936 10.398 6.45066 10.6793C6.73196 10.9606 6.89 11.3422 6.89 11.74C6.89 12.1378 6.73196 12.5194 6.45066 12.8007C6.16936 13.082 5.78782 13.24 5.39 13.24ZM3.89 8.24L4.67 5.91L7 8.24H3.89ZM16.39 3.74L17.89 8.24H12.09L15.01 11.16C15.39 10.41 16.26 10.1 17.01 10.45C17.76 10.81 18.07 11.71 17.72 12.45C17.57 12.74 17.32 13.01 17.01 13.16L19.89 16.04V9.24L17.81 3.24C17.6 2.64 17.03 2.24 16.39 2.24H6.09L7.59 3.74H16.39Z" fill="#707070"/>
</svg>
