<svg width="21" height="19" viewBox="0 0 21 19" fill="none" xmlns="http://www.w3.org/2000/svg">
<path d="M2.3165 6.94949L4.05387 1.73737H16.7946L18.532 6.94949M16.7946 12.7407C16.3338 12.7407 15.8919 12.5577 15.5661 12.2319C15.2403 11.9061 15.0572 11.4641 15.0572 11.0034C15.0572 10.5426 15.2403 10.1007 15.5661 9.77486C15.8919 9.44904 16.3338 9.26599 16.7946 9.26599C17.2554 9.26599 17.6973 9.44904 18.0231 9.77486C18.3489 10.1007 18.532 10.5426 18.532 11.0034C18.532 11.4641 18.3489 11.9061 18.0231 12.2319C17.6973 12.5577 17.2554 12.7407 16.7946 12.7407ZM4.05387 12.7407C3.59309 12.7407 3.15118 12.5577 2.82536 12.2319C2.49954 11.9061 2.3165 11.4641 2.3165 11.0034C2.3165 10.5426 2.49954 10.1007 2.82536 9.77486C3.15118 9.44904 3.59309 9.26599 4.05387 9.26599C4.51465 9.26599 4.95656 9.44904 5.28238 9.77486C5.6082 10.1007 5.79125 10.5426 5.79125 11.0034C5.79125 11.4641 5.6082 11.9061 5.28238 12.2319C4.95656 12.5577 4.51465 12.7407 4.05387 12.7407ZM18.4393 1.15825C18.2077 0.486465 17.5591 0 16.7946 0H4.05387C3.28943 0 2.64081 0.486465 2.40916 1.15825L0 8.10774V17.3737C0 17.6809 0.122029 17.9755 0.339243 18.1927C0.556457 18.41 0.851062 18.532 1.15825 18.532H2.3165C2.62369 18.532 2.91829 18.41 3.1355 18.1927C3.35272 17.9755 3.47475 17.6809 3.47475 17.3737V16.2155H17.3737V17.3737C17.3737 17.6809 17.4958 17.9755 17.713 18.1927C17.9302 18.41 18.2248 18.532 18.532 18.532H19.6902C19.9974 18.532 20.292 18.41 20.5092 18.1927C20.7265 17.9755 20.8485 17.6809 20.8485 17.3737V8.10774L18.4393 1.15825Z" fill="#1F8CF9"/>
</svg>
