<svg width="14" height="17" viewBox="0 0 14 17" fill="none" xmlns="http://www.w3.org/2000/svg">
<path d="M5.66667 8.5C5.85453 8.5 6.0347 8.57463 6.16753 8.70747C6.30037 8.8403 6.375 9.02047 6.375 9.20833C6.375 9.39619 6.30037 9.57636 6.16753 9.7092C6.0347 9.84204 5.85453 9.91667 5.66667 9.91667H3.54167C3.3538 9.91667 3.17364 9.84204 3.0408 9.7092C2.90796 9.57636 2.83333 9.39619 2.83333 9.20833C2.83333 9.02047 2.90796 8.8403 3.0408 8.70747C3.17364 8.57463 3.3538 8.5 3.54167 8.5H5.66667ZM9.91667 6.375C9.91667 6.18714 9.84204 6.00697 9.7092 5.87413C9.57636 5.74129 9.39619 5.66667 9.20833 5.66667H3.54167C3.3538 5.66667 3.17364 5.74129 3.0408 5.87413C2.90796 6.00697 2.83333 6.18714 2.83333 6.375C2.83333 6.56286 2.90796 6.74303 3.0408 6.87587C3.17364 7.00871 3.3538 7.08333 3.54167 7.08333H9.20833C9.39619 7.08333 9.57636 7.00871 9.7092 6.87587C9.84204 6.74303 9.91667 6.56286 9.91667 6.375ZM3.54167 4.25H9.20833C9.39619 4.25 9.57636 4.17537 9.7092 4.04253C9.84204 3.9097 9.91667 3.72953 9.91667 3.54167C9.91667 3.3538 9.84204 3.17364 9.7092 3.0408C9.57636 2.90796 9.39619 2.83333 9.20833 2.83333H3.54167C3.3538 2.83333 3.17364 2.90796 3.0408 3.0408C2.90796 3.17364 2.83333 3.3538 2.83333 3.54167C2.83333 3.72953 2.90796 3.9097 3.0408 4.04253C3.17364 4.17537 3.3538 4.25 3.54167 4.25ZM12.0417 13.7728V16.4879C12.0417 16.5889 12.0118 16.6877 11.9557 16.7717C11.8996 16.8558 11.8198 16.9213 11.7264 16.9599C11.6331 16.9986 11.5304 17.0087 11.4313 16.989C11.3322 16.9693 11.2411 16.9206 11.1697 16.8491L10.625 16.3051L10.0803 16.8491C10.0089 16.9206 9.91785 16.9693 9.81874 16.989C9.71964 17.0087 9.61692 16.9986 9.52357 16.9599C9.43022 16.9213 9.35044 16.8558 9.29432 16.7717C9.23821 16.6877 9.20828 16.5889 9.20833 16.4879V13.7728C8.66812 13.4625 8.24571 12.9821 8.00687 12.4067C7.76804 11.8313 7.7262 11.193 7.88785 10.5913C8.04951 9.98964 8.4056 9.45829 8.90066 9.08004C9.39573 8.70178 10.002 8.49785 10.625 8.5C10.8644 8.50299 11.1025 8.5368 11.3333 8.60058V3.54167C11.3333 2.97808 11.1095 2.43758 10.7109 2.03906C10.3124 1.64055 9.77192 1.41667 9.20833 1.41667H3.54167C2.97808 1.41667 2.43758 1.64055 2.03906 2.03906C1.64055 2.43758 1.41667 2.97808 1.41667 3.54167V12.0417C1.41667 12.6053 1.64055 13.1458 2.03906 13.5443C2.43758 13.9428 2.97808 14.1667 3.54167 14.1667H7.08333C7.27119 14.1667 7.45136 14.2413 7.5842 14.3741C7.71704 14.507 7.79167 14.6871 7.79167 14.875C7.79167 15.0629 7.71704 15.243 7.5842 15.3759C7.45136 15.5087 7.27119 15.5833 7.08333 15.5833H3.54167C2.6027 15.5822 1.70252 15.2087 1.03857 14.5448C0.374625 13.8808 0.00112473 12.9806 0 12.0417V3.54167C0.00112473 2.6027 0.374625 1.70252 1.03857 1.03857C1.70252 0.374625 2.6027 0.00112473 3.54167 0L9.20833 0C10.1473 0.00112473 11.0475 0.374625 11.7114 1.03857C12.3754 1.70252 12.7489 2.6027 12.75 3.54167V9.47892C13.0275 9.79051 13.2317 10.1602 13.3478 10.561C13.464 10.9617 13.489 11.3833 13.4211 11.795C13.3532 12.2067 13.194 12.5979 12.9554 12.9401C12.7167 13.2824 12.4045 13.5669 12.0417 13.7728V13.7728ZM12.0417 11.3333C12.0417 11.0531 11.9586 10.7792 11.8029 10.5463C11.6472 10.3133 11.426 10.1317 11.1671 10.0245C10.9083 9.91728 10.6234 9.88922 10.3486 9.94389C10.0738 9.99855 9.82139 10.1335 9.62327 10.3316C9.42514 10.5297 9.29022 10.7821 9.23555 11.057C9.18089 11.3318 9.20895 11.6166 9.31617 11.8755C9.42339 12.1343 9.60497 12.3556 9.83794 12.5112C10.0709 12.6669 10.3448 12.75 10.625 12.75C11.0007 12.75 11.3611 12.6007 11.6267 12.3351C11.8924 12.0694 12.0417 11.7091 12.0417 11.3333Z" fill="#374957"/>
</svg>
