<svg width="18" height="18" viewBox="0 0 18 18" fill="none" xmlns="http://www.w3.org/2000/svg">
<path d="M16.625 9.00781V16.7578H1V9.00781H16.625Z" stroke="#515151"/>
<path d="M8.8125 11.1951C9.26005 11.1951 9.68939 11.3737 10.0059 11.6902C10.3221 12.0065 10.4999 12.4353 10.5 12.8826C10.5 13.33 10.3222 13.7595 10.0059 14.0759C9.68939 14.3924 9.26005 14.5701 8.8125 14.5701C8.36495 14.5701 7.93561 14.3924 7.61914 14.0759C7.30279 13.7595 7.125 13.33 7.125 12.8826C7.1251 12.4353 7.30295 12.0065 7.61914 11.6902C7.93561 11.3737 8.36495 11.1951 8.8125 11.1951ZM12.8994 4.67749L13.1143 4.97827L13.4648 4.86206L14.625 4.47437L15.834 8.0105H2.36621L10.5898 1.44019L12.8994 4.67749Z" stroke="#515151"/>
<path d="M16.6875 8.51034H16.5335L14.9384 3.84396L1.24725 8.51034L0.9375 8.50771M0.5 8.51121H0.9375L10.6902 0.720215L13.1551 4.17647" stroke="#515151" stroke-linecap="square"/>
<path d="M11 12.8828C11 13.463 10.7695 14.0194 10.3593 14.4296C9.94906 14.8398 9.39266 15.0703 8.8125 15.0703C8.23234 15.0703 7.67594 14.8398 7.2657 14.4296C6.85547 14.0194 6.625 13.463 6.625 12.8828C6.625 12.3027 6.85547 11.7463 7.2657 11.336C7.67594 10.9258 8.23234 10.6953 8.8125 10.6953C9.39266 10.6953 9.94906 10.9258 10.3593 11.336C10.7695 11.7463 11 12.3027 11 12.8828Z" stroke="#515151" stroke-linecap="square"/>
<path d="M17.125 8.50781V17.2578H0.5V8.50781H17.125Z" stroke="#515151" stroke-linecap="square"/>
<path d="M0.5 8.50781H2.25C2.25 8.97194 2.06563 9.41706 1.73744 9.74525C1.40925 10.0734 0.964129 10.2578 0.5 10.2578V8.50781ZM17.125 8.50781H15.375C15.375 8.97194 15.5594 9.41706 15.8876 9.74525C16.2158 10.0734 16.6609 10.2578 17.125 10.2578V8.50781ZM0.5 17.2578H2.25175C2.25198 17.0277 2.20683 16.7998 2.11887 16.5872C2.03092 16.3745 1.9019 16.1813 1.73919 16.0186C1.57648 15.8559 1.38327 15.7269 1.17064 15.6389C0.958002 15.551 0.730108 15.5058 0.5 15.5061V17.2578ZM17.125 17.2578H15.375C15.375 16.7937 15.5594 16.3486 15.8876 16.0204C16.2158 15.6922 16.6609 15.5078 17.125 15.5078V17.2578Z" stroke="#515151" stroke-linecap="square"/>
</svg>
