<svg width="15" height="13" viewBox="0 0 15 13" fill="none" xmlns="http://www.w3.org/2000/svg">
<path d="M0.5 9.8335H13.8333M7.16667 3.16683C7.16667 3.16683 8.16667 2.4775 8.16667 1.6275C8.16667 0.124167 6.16667 0.124167 6.16667 1.6275C6.16667 2.4775 7.16667 3.16683 7.16667 3.16683ZM7.16667 3.16683C10.0907 3.16683 12.5013 5.3515 12.8333 8.16683M7.16667 3.16683C4.24267 3.16683 1.832 5.3515 1.5 8.16683M1.16667 9.8335L1.58067 11.4902C1.65277 11.7786 1.81922 12.0347 2.05355 12.2177C2.28789 12.4007 2.57667 12.5001 2.874 12.5002H11.4587C11.756 12.5001 12.0448 12.4007 12.2791 12.2177C12.5135 12.0347 12.6799 11.7786 12.752 11.4902L13.1667 9.8335" stroke="#0A0E11" stroke-linecap="round" stroke-linejoin="round"/>
</svg>
