<svg width="83" height="83" viewBox="0 0 83 83" fill="none" xmlns="http://www.w3.org/2000/svg">
<path d="M6.91675 65.7083V26.107C6.91675 21.1131 6.91675 18.6162 7.75712 16.6553C8.80629 14.2119 10.7536 12.2645 13.1971 11.2154C15.158 10.375 17.6307 10.375 22.6522 10.375H24.3606C25.3935 10.3751 26.4134 10.6066 27.3451 11.0524C28.2769 11.4983 29.097 12.1472 29.7452 12.9515L36.029 20.75M36.029 20.75H55.3334C60.1751 20.75 62.5959 20.75 64.4461 21.6907C66.0725 22.5203 67.3945 23.8435 68.2226 25.4706C69.1667 27.3208 69.1667 29.7417 69.1667 34.5833V38.0417M36.029 20.75H24.2084" stroke="#7E1513" stroke-opacity="0.4" stroke-width="5.1875" stroke-linecap="round" stroke-linejoin="round"/>
<path d="M10.9214 53.6524L11.952 51.0863C14.4904 44.768 15.7596 41.6105 18.4053 39.826C21.0509 38.0415 24.4712 38.0415 31.3048 38.0415H59.179C68.475 38.0415 73.1265 38.0415 75.1911 41.0814C77.2592 44.1213 75.53 48.4165 72.0786 57.0139L71.048 59.58C68.5096 65.8984 67.2404 69.0558 64.5947 70.8403C61.9491 72.6248 58.5288 72.6248 51.6952 72.6248H23.821C14.525 72.6248 9.87355 72.6248 7.80892 69.585C5.74084 66.5485 7.47 62.2498 10.9214 53.6524Z" stroke="#7E1513" stroke-opacity="0.4" stroke-width="5.1875" stroke-linejoin="round"/>
</svg>
