<svg width="56" height="56" viewBox="0 0 56 56" fill="none" xmlns="http://www.w3.org/2000/svg">
<path d="M28 1.75C13.5026 1.75 1.75 13.5026 1.75 28C1.75 42.4974 13.5026 54.25 28 54.25C42.4974 54.25 54.25 42.4974 54.25 28C54.25 13.5026 42.4974 1.75 28 1.75ZM44.0867 44.0867C40.0978 48.0636 34.7712 50.413 29.1447 50.6772C23.5182 50.9413 17.9949 49.1012 13.651 45.5154C9.30714 41.9296 6.45385 36.855 5.64712 31.2804C4.8404 25.7058 6.13803 20.0305 9.28716 15.3604C12.4363 10.6902 17.2113 7.35983 22.6819 6.01806C28.1524 4.67629 33.9266 5.41929 38.8792 8.10228C43.8319 10.7853 47.6082 15.2161 49.4725 20.5313C51.3367 25.8465 51.1553 31.6654 48.9636 36.8542C47.8214 39.558 46.1651 42.0142 44.0867 44.0867Z" fill="#14606D"/>
<path d="M14 21H18.375V25.375H14V21ZM36.75 21H41.125V25.375H36.75V21ZM25.375 33.5724C25.3749 33.5211 25.3821 33.4701 25.3962 33.4207L28.875 21.2451V18.375H25.375V20.7549L22.031 32.459C21.8586 33.0621 21.8286 33.697 21.9434 34.3137C22.0581 34.9304 22.3144 35.512 22.6922 36.0128C23.0699 36.5136 23.5587 36.9199 24.1202 37.1996C24.6816 37.4794 25.3003 37.625 25.9276 37.625H32.375V34.125H25.9276C25.7811 34.1249 25.6406 34.0666 25.537 33.963C25.4334 33.8594 25.3751 33.7189 25.375 33.5724Z" fill="#14606D"/>
</svg>
