<svg width="40" height="40" viewBox="0 0 40 40" fill="none" xmlns="http://www.w3.org/2000/svg">
<path fill-rule="evenodd" clip-rule="evenodd" d="M19.7615 3.29358C27.5245 3.29358 31.406 3.29358 33.8169 5.70449C34.6469 6.53448 35.192 7.53903 35.5493 8.8153L8.81518 35.5494C7.53891 35.1921 6.53436 34.647 5.70437 33.817C3.29346 31.4077 3.29346 27.5246 3.29346 19.7616C3.29346 11.9986 3.29346 8.11706 5.70437 5.70449C8.11858 3.29358 11.9984 3.29358 19.7615 3.29358ZM9.05726 14.421C9.05726 17.3605 10.8967 20.7908 13.7671 22.0177C14.4357 22.3026 15.2064 22.3026 15.875 22.0177C18.7454 20.7908 20.5849 17.3605 20.5849 14.421C20.5849 11.4584 18.0043 9.05738 14.8211 9.05738C11.6378 9.05738 9.05726 11.4584 9.05726 14.421Z" fill="#E9E9E9"/>
<path d="M17.2915 14.8212C17.2915 15.4764 17.0312 16.1047 16.568 16.5679C16.1047 17.0312 15.4764 17.2914 14.8213 17.2914C14.1661 17.2914 13.5378 17.0312 13.0746 16.5679C12.6113 16.1047 12.3511 15.4764 12.3511 14.8212C12.3511 14.1661 12.6113 13.5378 13.0746 13.0745C13.5378 12.6113 14.1661 12.351 14.8213 12.351C15.4764 12.351 16.1047 12.6113 16.568 13.0745C17.0312 13.5378 17.2915 14.1661 17.2915 14.8212Z" fill="#E9E9E9"/>
<path opacity="0.5" d="M36.0483 11.8109C36.2295 13.8875 36.2295 16.4779 36.2295 19.7616C36.2295 26.5695 36.2295 30.3917 34.6041 32.8553L24.8007 23.0552L36.0483 11.8109ZM32.8568 34.6026L23.0567 24.8025L11.8091 36.0468C13.8873 36.2296 16.4778 36.2296 19.7631 36.2296C26.571 36.2296 30.3932 36.2296 32.8568 34.6026Z" fill="#E9E9E9"/>
<path d="M15.2935 2.35101C17.6804 2.35101 19.9696 3.29922 21.6574 4.98705C23.3452 6.67488 24.2935 8.96406 24.2935 11.351C24.2935 14.425 22.6175 16.941 20.8515 18.746C19.9691 19.6381 19.0064 20.4468 17.9755 21.162L17.5495 21.452L17.3495 21.585L16.9725 21.825L16.6365 22.03L16.2205 22.272C15.9381 22.4332 15.6186 22.518 15.2935 22.518C14.9683 22.518 14.6488 22.4332 14.3665 22.272L13.9505 22.03L13.4305 21.71L13.2385 21.585L12.8285 21.312C11.7163 20.5595 10.6804 19.7001 9.73546 18.746C7.96946 16.94 6.29346 14.425 6.29346 11.351C6.29346 8.96406 7.24167 6.67488 8.9295 4.98705C10.6173 3.29922 12.9065 2.35101 15.2935 2.35101ZM15.2935 8.35101C14.8995 8.35101 14.5094 8.42861 14.1454 8.57937C13.7814 8.73014 13.4507 8.95112 13.1721 9.22969C12.8936 9.50827 12.6726 9.83899 12.5218 10.203C12.3711 10.5669 12.2935 10.957 12.2935 11.351C12.2935 11.745 12.3711 12.1351 12.5218 12.4991C12.6726 12.863 12.8936 13.1938 13.1721 13.4723C13.4507 13.7509 13.7814 13.9719 14.1454 14.1227C14.5094 14.2734 14.8995 14.351 15.2935 14.351C16.0891 14.351 16.8522 14.0349 17.4148 13.4723C17.9774 12.9097 18.2935 12.1467 18.2935 11.351C18.2935 10.5554 17.9774 9.7923 17.4148 9.22969C16.8522 8.66708 16.0891 8.35101 15.2935 8.35101Z" fill="#1F8CF9"/>
</svg>
