<svg width="44" height="54" viewBox="0 0 44 54" fill="none" xmlns="http://www.w3.org/2000/svg">
<path d="M23.3391 4.6667C23.0297 4.6667 22.733 4.78962 22.5142 5.00841C22.2954 5.2272 22.1725 5.52395 22.1725 5.83337V28H17.5058V10.5C17.5058 10.1906 17.3829 9.89387 17.1641 9.67508C16.9453 9.45629 16.6485 9.33337 16.3391 9.33337C16.0297 9.33337 15.733 9.45629 15.5142 9.67508C15.2954 9.89387 15.1725 10.1906 15.1725 10.5V32.6667H10.5058C9.61913 28.8867 7.33713 26.6934 4.89413 26.418C6.0483 29.3842 7.27051 32.3234 8.55979 35.2334C10.5665 39.8114 12.5848 43.218 15.1818 45.4977C17.6878 47.698 20.9101 49 25.6725 49C29.0761 49 32.3403 47.648 34.747 45.2412C37.1537 42.8345 38.5058 39.5703 38.5058 36.1667V16.3334C38.5058 16.0239 38.3829 15.7272 38.1641 15.5084C37.9453 15.2896 37.6485 15.1667 37.3391 15.1667C37.0297 15.1667 36.733 15.2896 36.5142 15.5084C36.2954 15.7272 36.1725 16.0239 36.1725 16.3334V28H31.5058V9.33337C31.5058 9.02395 31.3829 8.7272 31.1641 8.50841C30.9453 8.28962 30.6486 8.1667 30.3391 8.1667C30.0297 8.1667 29.733 8.28962 29.5142 8.50841C29.2954 8.7272 29.1725 9.02395 29.1725 9.33337V28H24.5058V5.83337C24.5058 5.52395 24.3829 5.2272 24.1641 5.00841C23.9453 4.78962 23.6485 4.6667 23.3391 4.6667ZM43.1725 36.1667C43.1725 40.808 41.3287 45.2592 38.0468 48.5411C34.7649 51.823 30.3138 53.6667 25.6725 53.6667C19.9371 53.6667 15.5738 52.052 12.1018 49.0047C8.71846 46.032 6.36413 41.8554 4.28513 37.1047C2.11513 32.1417 0.915793 29.12 0.26246 27.356C-0.57054 25.1067 0.579793 21.9614 3.70646 21.742C6.1735 21.5476 8.61742 22.336 10.5058 23.9354V10.5C10.5054 9.62678 10.7011 8.76459 11.0785 7.97706C11.4558 7.18954 12.0052 6.49678 12.686 5.9499C13.3668 5.40302 14.1617 5.01597 15.012 4.8173C15.8624 4.61863 16.7465 4.61341 17.5991 4.80204C17.8235 3.55062 18.4505 2.40675 19.3848 1.54452C20.3191 0.682288 21.5095 0.148902 22.7749 0.0255353C24.0403 -0.0978314 25.3113 0.195577 26.3945 0.861108C27.4778 1.52664 28.314 2.52785 28.7758 3.71237C29.6424 3.47229 30.5527 3.43564 31.4358 3.60527C32.3189 3.7749 33.1508 4.14624 33.8668 4.69031C34.5827 5.23439 35.1633 5.9365 35.5632 6.74188C35.9632 7.54726 36.1717 8.43415 36.1725 9.33337V10.6167C36.5505 10.5389 36.9394 10.5 37.3391 10.5C38.8862 10.5 40.37 11.1146 41.4639 12.2086C42.5579 13.3025 43.1725 14.7863 43.1725 16.3334V36.1667Z" fill="#14606D"/>
</svg>
