<svg width="59" height="59" viewBox="0 0 59 59" fill="none" xmlns="http://www.w3.org/2000/svg">
<path d="M45.4793 22.1247H40.5627M40.5627 22.1247H35.646M40.5627 22.1247V17.208M40.5627 22.1247V27.0413" stroke="#7E1513" stroke-opacity="0.56" stroke-width="3.6875" stroke-linecap="round"/>
<path d="M29.4998 13.703L28.1527 14.9617C28.3252 15.1463 28.5338 15.2934 28.7655 15.3941C28.9972 15.4947 29.2472 15.5466 29.4998 15.5466C29.7525 15.5466 30.0024 15.4947 30.2342 15.3941C30.4659 15.2934 30.6745 15.1463 30.847 14.9617L29.4998 13.703ZM6.51934 33.6352C6.64097 33.8495 6.80433 34.0373 6.99977 34.1874C7.19521 34.3375 7.41876 34.4469 7.65721 34.5091C7.89565 34.5714 8.14416 34.5852 8.38803 34.5497C8.6319 34.5143 8.86619 34.4303 9.07706 34.3028C9.28792 34.1752 9.47108 34.0067 9.6157 33.8072C9.76033 33.6076 9.86349 33.3811 9.91908 33.1411C9.97467 32.901 9.98157 32.6522 9.93937 32.4094C9.89717 32.1666 9.80672 31.9347 9.67338 31.7275L6.51934 33.6352ZM16.07 39.754C15.9034 39.5713 15.7018 39.424 15.4771 39.3209C15.2525 39.2177 15.0094 39.1608 14.7623 39.1535C14.5152 39.1462 14.2691 39.1887 14.0388 39.2784C13.8084 39.368 13.5984 39.5031 13.4214 39.6756C13.2443 39.8481 13.1037 40.0544 13.0079 40.2823C12.9122 40.5102 12.8632 40.7551 12.864 41.0023C12.8648 41.2495 12.9153 41.494 13.0125 41.7213C13.1096 41.9486 13.2515 42.154 13.4297 42.3254L16.07 39.754ZM6.76025 22.907C6.76025 15.7655 9.87742 11.3528 13.7321 9.84095C17.5794 8.334 22.9607 9.41075 28.1527 14.9617L30.847 12.4443C24.9765 6.16575 18.0661 4.18433 12.3874 6.40666C6.716 8.629 3.07275 14.7306 3.07275 22.907H6.76025ZM38.1286 49.0686C41.7989 46.0915 46.1944 42.1017 49.6901 37.6447C53.149 33.2345 55.9269 28.1088 55.9269 22.9021H52.2394C52.2394 26.8649 50.0761 31.1719 46.7868 35.3683C43.532 39.5204 39.3725 43.3136 35.8079 46.2046L38.1286 49.0686ZM55.9269 22.9021C55.9269 14.7281 52.2837 8.62654 46.6098 6.40666C40.9311 4.18187 34.0232 6.16083 28.1527 12.4419L30.847 14.9617C36.039 9.41075 41.4203 8.33154 45.2676 9.8385C49.1223 11.3479 52.2394 15.7631 52.2394 22.9021H55.9269ZM20.8711 49.071C23.9932 51.608 26.1614 53.469 29.4998 53.469V49.7815C27.7225 49.7815 26.6162 48.985 23.1918 46.2071L20.8711 49.071ZM35.8079 46.2046C32.3835 48.9825 31.2772 49.7815 29.4998 49.7815V53.469C32.8383 53.469 35.009 51.608 38.131 49.071L35.8079 46.2046ZM9.67584 31.7275C7.83455 28.689 6.76025 25.7021 6.76025 22.907H3.07275C3.07275 26.624 4.48875 30.282 6.51934 33.6352L9.67584 31.7275ZM23.1918 46.2071C20.696 44.1944 18.3182 42.0398 16.07 39.754L13.4297 42.3254C15.7759 44.7168 18.2622 46.9692 20.8711 49.071L23.1918 46.2071Z" fill="#7E1513" fill-opacity="0.56"/>
</svg>
