<svg width="14" height="16" viewBox="0 0 14 16" fill="none" xmlns="http://www.w3.org/2000/svg">
<path d="M0 14.385V5.693C0 5.437 0.0573333 5.19467 0.172 4.966C0.286667 4.73733 0.444667 4.549 0.646 4.401L6.031 0.323C6.313 0.107667 6.635 0 6.997 0C7.359 0 7.683 0.107667 7.969 0.323L13.354 4.4C13.556 4.548 13.714 4.73667 13.828 4.966C13.9427 5.19467 14 5.437 14 5.693V14.385C14 14.653 13.9003 14.8867 13.701 15.086C13.5017 15.2853 13.268 15.385 13 15.385H9.616C9.38667 15.385 9.19467 15.3077 9.04 15.153C8.88533 14.9977 8.808 14.8057 8.808 14.577V9.808C8.808 9.57933 8.73067 9.38767 8.576 9.233C8.42067 9.07767 8.22867 9 8 9H6C5.77133 9 5.57967 9.07767 5.425 9.233C5.26967 9.38767 5.192 9.57933 5.192 9.808V14.578C5.192 14.8067 5.11467 14.9983 4.96 15.153C4.80533 15.3077 4.61367 15.385 4.385 15.385H1C0.732 15.385 0.498333 15.2853 0.299 15.086C0.0996664 14.8867 0 14.653 0 14.385Z" fill="#1F8CF9"/>
</svg>
