<svg width="17" height="17" viewBox="0 0 17 17" fill="none" xmlns="http://www.w3.org/2000/svg">
<path d="M16.3774 6.40874L11.0047 1.03532C10.3397 0.372311 9.43902 0 8.50001 0C7.561 0 6.6603 0.372311 5.99534 1.03532L0.622634 6.40874C0.424602 6.6055 0.267596 6.83961 0.160717 7.09751C0.0538385 7.3554 -0.000786534 7.63195 8.5563e-06 7.91111V14.8648C8.5563e-06 15.4284 0.223892 15.9689 0.622407 16.3674C1.02092 16.7659 1.56142 16.9898 2.12501 16.9898H14.875C15.4386 16.9898 15.9791 16.7659 16.3776 16.3674C16.7761 15.9689 17 15.4284 17 14.8648V7.91111C17.0008 7.63195 16.9462 7.3554 16.8393 7.09751C16.7324 6.83961 16.5754 6.6055 16.3774 6.40874V6.40874ZM10.625 15.5732H6.37501V12.7866C6.37501 12.223 6.59889 11.6825 6.99741 11.284C7.39592 10.8855 7.93642 10.6616 8.50001 10.6616C9.06359 10.6616 9.6041 10.8855 10.0026 11.284C10.4011 11.6825 10.625 12.223 10.625 12.7866V15.5732ZM15.5833 14.8648C15.5833 15.0527 15.5087 15.2328 15.3759 15.3657C15.243 15.4985 15.0629 15.5732 14.875 15.5732H12.0417V12.7866C12.0417 11.8473 11.6685 10.9464 11.0043 10.2822C10.3402 9.61804 9.43932 9.2449 8.50001 9.2449C7.5607 9.2449 6.65986 9.61804 5.99567 10.2822C5.33148 10.9464 4.95834 11.8473 4.95834 12.7866V15.5732H2.12501C1.93715 15.5732 1.75698 15.4985 1.62414 15.3657C1.4913 15.2328 1.41668 15.0527 1.41668 14.8648V7.91111C1.41733 7.72339 1.49189 7.54347 1.62422 7.41032L6.99693 2.03903C7.39621 1.6416 7.93665 1.41849 8.50001 1.41849C9.06337 1.41849 9.60381 1.6416 10.0031 2.03903L15.3758 7.41244C15.5076 7.54508 15.5821 7.72412 15.5833 7.91111V14.8648Z" fill="#374957"/>
</svg>
