<svg width="21" height="21" viewBox="0 0 21 21" fill="none" xmlns="http://www.w3.org/2000/svg">
<path d="M16.625 3.5H13.125V2.625C13.125 1.92881 12.8484 1.26113 12.3562 0.768845C11.8639 0.276562 11.1962 0 10.5 0C9.80381 0 9.13613 0.276562 8.64384 0.768845C8.15156 1.26113 7.875 1.92881 7.875 2.625V3.5H4.375C3.2151 3.50139 2.10311 3.96277 1.28294 4.78294C0.462772 5.60311 0.00138938 6.7151 0 7.875L0 16.625C0.00138938 17.7849 0.462772 18.8969 1.28294 19.7171C2.10311 20.5372 3.2151 20.9986 4.375 21H16.625C17.7849 20.9986 18.8969 20.5372 19.7171 19.7171C20.5372 18.8969 20.9986 17.7849 21 16.625V7.875C20.9986 6.7151 20.5372 5.60311 19.7171 4.78294C18.8969 3.96277 17.7849 3.50139 16.625 3.5V3.5ZM9.625 2.625C9.625 2.39294 9.71719 2.17038 9.88128 2.00628C10.0454 1.84219 10.2679 1.75 10.5 1.75C10.7321 1.75 10.9546 1.84219 11.1187 2.00628C11.2828 2.17038 11.375 2.39294 11.375 2.625V4.375C11.375 4.60706 11.2828 4.82962 11.1187 4.99372C10.9546 5.15781 10.7321 5.25 10.5 5.25C10.2679 5.25 10.0454 5.15781 9.88128 4.99372C9.71719 4.82962 9.625 4.60706 9.625 4.375V2.625ZM19.25 16.625C19.25 17.3212 18.9734 17.9889 18.4812 18.4812C17.9889 18.9734 17.3212 19.25 16.625 19.25H4.375C3.67881 19.25 3.01113 18.9734 2.51884 18.4812C2.02656 17.9889 1.75 17.3212 1.75 16.625V7.875C1.75 7.17881 2.02656 6.51113 2.51884 6.01884C3.01113 5.52656 3.67881 5.25 4.375 5.25H8.036C8.21419 5.76148 8.54714 6.20482 8.98865 6.51855C9.43017 6.83228 9.95837 7.00083 10.5 7.00083C11.0416 7.00083 11.5698 6.83228 12.0113 6.51855C12.4529 6.20482 12.7858 5.76148 12.964 5.25H16.625C17.3212 5.25 17.9889 5.52656 18.4812 6.01884C18.9734 6.51113 19.25 7.17881 19.25 7.875V16.625ZM8.75 8.75H4.375C4.14294 8.75 3.92038 8.84219 3.75628 9.00628C3.59219 9.17038 3.5 9.39294 3.5 9.625V16.625C3.5 16.8571 3.59219 17.0796 3.75628 17.2437C3.92038 17.4078 4.14294 17.5 4.375 17.5H8.75C8.98206 17.5 9.20462 17.4078 9.36872 17.2437C9.53281 17.0796 9.625 16.8571 9.625 16.625V9.625C9.625 9.39294 9.53281 9.17038 9.36872 9.00628C9.20462 8.84219 8.98206 8.75 8.75 8.75ZM7.875 15.75H5.25V10.5H7.875V15.75ZM17.5 13.125C17.5 13.3571 17.4078 13.5796 17.2437 13.7437C17.0796 13.9078 16.8571 14 16.625 14H12.25C12.0179 14 11.7954 13.9078 11.6313 13.7437C11.4672 13.5796 11.375 13.3571 11.375 13.125C11.375 12.8929 11.4672 12.6704 11.6313 12.5063C11.7954 12.3422 12.0179 12.25 12.25 12.25H16.625C16.8571 12.25 17.0796 12.3422 17.2437 12.5063C17.4078 12.6704 17.5 12.8929 17.5 13.125ZM17.5 9.625C17.5 9.85706 17.4078 10.0796 17.2437 10.2437C17.0796 10.4078 16.8571 10.5 16.625 10.5H12.25C12.0179 10.5 11.7954 10.4078 11.6313 10.2437C11.4672 10.0796 11.375 9.85706 11.375 9.625C11.375 9.39294 11.4672 9.17038 11.6313 9.00628C11.7954 8.84219 12.0179 8.75 12.25 8.75H16.625C16.8571 8.75 17.0796 8.84219 17.2437 9.00628C17.4078 9.17038 17.5 9.39294 17.5 9.625ZM15.75 16.625C15.75 16.8571 15.6578 17.0796 15.4937 17.2437C15.3296 17.4078 15.1071 17.5 14.875 17.5H12.25C12.0179 17.5 11.7954 17.4078 11.6313 17.2437C11.4672 17.0796 11.375 16.8571 11.375 16.625C11.375 16.3929 11.4672 16.1704 11.6313 16.0063C11.7954 15.8422 12.0179 15.75 12.25 15.75H14.875C15.1071 15.75 15.3296 15.8422 15.4937 16.0063C15.6578 16.1704 15.75 16.3929 15.75 16.625Z" fill="#7E1513"/>
</svg>
