<svg width="15" height="15" viewBox="0 0 15 15" fill="none" xmlns="http://www.w3.org/2000/svg">
<path d="M0.5 7.16667C0.5 10.8487 3.48467 13.8333 7.16667 13.8333C10.8487 13.8333 13.8333 10.8487 13.8333 7.16667C13.8333 3.48467 10.8487 0.5 7.16667 0.5C3.48467 0.5 0.5 3.48467 0.5 7.16667Z" stroke="#0A0E11" stroke-linecap="round" stroke-linejoin="round"/>
<path d="M7.83333 0.533203C7.83333 0.533203 9.83333 3.16654 9.83333 7.16654C9.83333 11.1665 7.83333 13.7999 7.83333 13.7999M6.5 13.7999C6.5 13.7999 4.5 11.1665 4.5 7.16654C4.5 3.16654 6.5 0.533203 6.5 0.533203M0.92 9.49987H13.4133M0.92 4.8332H13.4133" stroke="#0A0E11" stroke-linecap="round" stroke-linejoin="round"/>
</svg>
