<svg width="21" height="20" viewBox="0 0 21 20" fill="none" xmlns="http://www.w3.org/2000/svg">
<path d="M7 9.5C7.3283 9.5 7.65339 9.43534 7.95671 9.3097C8.26002 9.18406 8.53562 8.99991 8.76777 8.76777C8.99991 8.53562 9.18406 8.26002 9.3097 7.95671C9.43534 7.65339 9.5 7.3283 9.5 7C9.5 6.6717 9.43534 6.34661 9.3097 6.04329C9.18406 5.73998 8.99991 5.46438 8.76777 5.23223C8.53562 5.00009 8.26002 4.81594 7.95671 4.6903C7.65339 4.56466 7.3283 4.5 7 4.5C6.33696 4.5 5.70107 4.76339 5.23223 5.23223C4.76339 5.70107 4.5 6.33696 4.5 7C4.5 7.3283 4.56466 7.65339 4.6903 7.95671C4.81594 8.26002 5.00009 8.53562 5.23223 8.76777C5.70107 9.23661 6.33696 9.5 7 9.5ZM7 0C10.86 0 14 3.13 14 7C14 12.25 7 20 7 20C7 20 0 12.25 0 7C0 5.14348 0.737498 3.36301 2.05025 2.05025C3.36301 0.737498 5.14348 0 7 0ZM13 15H16V12H18V15H21V17H18V20H16V17H13V15Z" fill="#8B8B8B"/>
</svg>
