<svg width="9" height="11" viewBox="0 0 9 11" fill="none" xmlns="http://www.w3.org/2000/svg">
<path d="M7.79167 4.12467C7.79167 7.10384 4.125 9.62467 4.125 9.62467C4.125 9.62467 0.458332 7.10384 0.458332 4.12467C0.458332 3.15221 0.844641 2.21958 1.53227 1.53195C2.21991 0.844316 3.15254 0.458008 4.125 0.458008C5.09746 0.458008 6.03009 0.844316 6.71772 1.53195C7.40536 2.21958 7.79167 3.15221 7.79167 4.12467Z" stroke="#979797" stroke-width="0.916667"/>
<path d="M5.5 4.12402C5.5 4.4887 5.35513 4.83843 5.09727 5.0963C4.83941 5.35416 4.48967 5.49902 4.125 5.49902C3.76033 5.49902 3.41059 5.35416 3.15273 5.0963C2.89487 4.83843 2.75 4.4887 2.75 4.12402C2.75 3.75935 2.89487 3.40961 3.15273 3.15175C3.41059 2.89389 3.76033 2.74902 4.125 2.74902C4.48967 2.74902 4.83941 2.89389 5.09727 3.15175C5.35513 3.40961 5.5 3.75935 5.5 4.12402Z" stroke="#979797" stroke-width="0.916667"/>
</svg>
