<svg width="18" height="17" viewBox="0 0 18 17" fill="none" xmlns="http://www.w3.org/2000/svg">
<path d="M16.2031 12.8985H14.83C14.7363 12.8985 14.6484 12.9395 14.5898 13.0117C14.4531 13.1778 14.3066 13.3379 14.1523 13.4903C13.5212 14.122 12.7737 14.6254 11.9511 14.9727C11.0989 15.3326 10.1829 15.5173 9.25776 15.5157C8.32221 15.5157 7.41596 15.3321 6.5644 14.9727C5.74179 14.6254 4.99428 14.122 4.36323 13.4903C3.73104 12.8607 3.22694 12.1145 2.87885 11.293C2.51752 10.4414 2.33588 9.53714 2.33588 8.60159C2.33588 7.66605 2.51948 6.76175 2.87885 5.91019C3.22651 5.08792 3.72651 4.34769 4.36323 3.71292C4.99995 3.07815 5.74018 2.57815 6.5644 2.2305C7.41596 1.87112 8.32221 1.68753 9.25776 1.68753C10.1933 1.68753 11.0996 1.86917 11.9511 2.2305C12.7753 2.57815 13.5156 3.07815 14.1523 3.71292C14.3066 3.86722 14.4511 4.02737 14.5898 4.19144C14.6484 4.2637 14.7382 4.30472 14.83 4.30472H16.2031C16.3261 4.30472 16.4023 4.168 16.3339 4.06448C14.8359 1.73636 12.2148 0.195342 9.23627 0.203155C4.55659 0.214873 0.804634 4.0137 0.851509 8.68753C0.898384 13.2871 4.64448 17 9.25776 17C12.2285 17 14.8378 15.461 16.3339 13.1387C16.4003 13.0352 16.3261 12.8985 16.2031 12.8985ZM17.9394 8.47855L15.1679 6.29105C15.0644 6.20901 14.914 6.28323 14.914 6.41409V7.89847H8.7812C8.69526 7.89847 8.62495 7.96878 8.62495 8.05472V9.14847C8.62495 9.2344 8.69526 9.30472 8.7812 9.30472H14.914V10.7891C14.914 10.92 15.0664 10.9942 15.1679 10.9121L17.9394 8.72464C17.9581 8.71002 17.9732 8.69135 17.9836 8.67003C17.994 8.64871 17.9993 8.62531 17.9993 8.60159C17.9993 8.57788 17.994 8.55447 17.9836 8.53315C17.9732 8.51184 17.9581 8.49316 17.9394 8.47855Z" fill="#F25454"/>
</svg>
