<svg width="17" height="15" viewBox="0 0 17 15" fill="none" xmlns="http://www.w3.org/2000/svg">
<path d="M16.1192 1.05425C16.0849 0.904856 16.0201 0.763465 15.9286 0.638207C15.8372 0.51295 15.7209 0.406297 15.5863 0.324384C15.4518 0.241076 15.3013 0.184286 15.1437 0.157312C14.9861 0.130339 14.8245 0.133721 14.6683 0.16726L10.711 1.0137L5.43465 0L0.949764 0.957946C0.680334 1.01464 0.439206 1.15817 0.266437 1.36471C0.093667 1.57124 -0.000343669 1.82834 2.21606e-05 2.09329V13.2186C-0.00121624 13.4147 0.0494683 13.6077 0.147309 13.7798C0.245149 13.9518 0.386929 14.0971 0.559314 14.2019C0.693878 14.2852 0.844334 14.342 1.00194 14.369C1.15955 14.396 1.32116 14.3926 1.4774 14.3591L5.43465 13.5126L10.711 14.5263L15.1906 13.5684C15.46 13.5117 15.7012 13.3681 15.8739 13.1616C16.0467 12.9551 16.1407 12.698 16.1404 12.433V1.30767C16.1395 1.22234 16.1289 1.13735 16.1087 1.05425H16.1192ZM6.22611 12.3215L5.42938 12.1695L4.6432 12.3317V1.51548L5.43993 1.34822L6.22611 1.50028V12.3165V12.3215ZM11.5024 13.0108L10.7057 13.1781L9.91954 13.026V2.2048L10.7163 2.35685L11.5024 2.19466H11.5077V13.0108H11.5024Z" fill="#181818"/>
</svg>
