<svg width="19" height="20" viewBox="0 0 19 20" fill="none" xmlns="http://www.w3.org/2000/svg">
<path fill-rule="evenodd" clip-rule="evenodd" d="M2.04039 7.36922C2.04039 5.41478 2.81679 3.54039 4.19879 2.15839C5.58078 0.776397 7.45517 0 9.40961 0C11.364 0 13.2384 0.776397 14.6204 2.15839C16.0024 3.54039 16.7788 5.41478 16.7788 7.36922V11.3318L18.6969 15.168C18.7852 15.3445 18.8269 15.5407 18.8181 15.7379C18.8092 15.9352 18.75 16.1268 18.6462 16.2948C18.5425 16.4627 18.3975 16.6013 18.225 16.6974C18.0526 16.7935 17.8584 16.844 17.661 16.8439H13.4879C13.2538 17.7474 12.7262 18.5476 11.9881 19.1188C11.2499 19.6901 10.343 20 9.40961 20C8.47625 20 7.56931 19.6901 6.83116 19.1188C6.09301 18.5476 5.56544 17.7474 5.33127 16.8439H1.15819C0.960778 16.844 0.766635 16.7935 0.594201 16.6974C0.421767 16.6013 0.276767 16.4627 0.172974 16.2948C0.0691812 16.1268 0.0100408 15.9352 0.0011699 15.7379C-0.00770098 15.5407 0.0339923 15.3445 0.12229 15.168L2.04039 11.3318V7.36922ZM7.58625 16.8439C7.77106 17.164 8.03685 17.4297 8.35691 17.6145C8.67698 17.7993 9.04004 17.8966 9.40961 17.8966C9.77918 17.8966 10.1422 17.7993 10.4623 17.6145C10.7824 17.4297 11.0482 17.164 11.233 16.8439H7.58625ZM9.40961 2.10549C8.01358 2.10549 6.67473 2.66006 5.68759 3.6472C4.70045 4.63434 4.14588 5.97319 4.14588 7.36922V11.3318C4.14586 11.6585 4.06981 11.9807 3.92375 12.2729L2.69204 14.7384H16.1282L14.8965 12.2729C14.7501 11.9808 14.6737 11.6585 14.6733 11.3318V7.36922C14.6733 5.97319 14.1188 4.63434 13.1316 3.6472C12.1445 2.66006 10.8056 2.10549 9.40961 2.10549Z" fill="white"/>
</svg>
