<svg width="17" height="20" viewBox="0 0 17 20" fill="none" xmlns="http://www.w3.org/2000/svg">
<path d="M14.9575 2.19583L8.33333 0L1.70917 2.19583C1.2121 2.35919 0.779274 2.67527 0.472375 3.09903C0.165477 3.52279 0.000165373 4.03261 0 4.55583V9.9925C0 16.2625 7.66667 19.725 7.995 19.8692L8.29 20L8.59667 19.8983C8.92583 19.7883 16.6667 17.14 16.6667 9.9925V4.55583C16.6664 4.03264 16.501 3.52288 16.1941 3.09914C15.8873 2.67541 15.4545 2.3593 14.9575 2.19583ZM15 9.9925C15 15.2117 9.70917 17.6725 8.3725 18.21C7.03333 17.5408 1.66667 14.5708 1.66667 9.9925V4.55583C1.66674 4.38139 1.72189 4.21143 1.82424 4.07017C1.92659 3.92891 2.07093 3.82357 2.23667 3.76917L8.33333 1.7475L14.43 3.76917C14.5959 3.82335 14.7404 3.92863 14.8427 4.06994C14.9451 4.21125 15.0002 4.38133 15 4.55583V9.9925Z" fill="white"/>
</svg>
