<svg width="19" height="19" viewBox="0 0 19 19" fill="none" xmlns="http://www.w3.org/2000/svg">
<path d="M3.16675 9.50016V2.0585C3.16675 1.93252 3.21679 1.8117 3.30587 1.72262C3.39495 1.63354 3.51577 1.5835 3.64175 1.5835H12.8662C12.9922 1.58361 13.1129 1.63372 13.2019 1.72283L15.6941 4.215C15.7384 4.25925 15.7735 4.31183 15.7974 4.36971C15.8213 4.42759 15.8336 4.48962 15.8334 4.55225V16.9418C15.8334 17.0042 15.8211 17.066 15.7973 17.1236C15.7734 17.1812 15.7384 17.2336 15.6943 17.2777C15.6502 17.3218 15.5978 17.3568 15.5402 17.3807C15.4826 17.4045 15.4208 17.4168 15.3584 17.4168H8.70841" stroke="#374957" stroke-width="1.1875" stroke-linecap="round" stroke-linejoin="round"/>
<path d="M12.6667 1.5835V4.27516C12.6667 4.40114 12.7167 4.52196 12.8058 4.61104C12.8949 4.70012 13.0157 4.75016 13.1417 4.75016H15.8334M1.57703 15.0418H3.95203M3.95203 15.0418H6.32703M3.95203 15.0418V12.6668M3.95203 15.0418V17.4168" stroke="#374957" stroke-width="1.1875" stroke-linecap="round" stroke-linejoin="round"/>
</svg>
