<svg width="14" height="18" viewBox="0 0 14 18" fill="none" xmlns="http://www.w3.org/2000/svg">
<path d="M3.76042 6.92708H10.0937M3.76042 13.2604H10.0937M3.76042 10.0937H6.92708M0.59375 15.9521V1.06875C0.59375 0.942772 0.643795 0.821954 0.732874 0.732874C0.821954 0.643795 0.942772 0.59375 1.06875 0.59375H10.2933C10.4192 0.593861 10.5399 0.643978 10.6289 0.733083L13.1211 3.22525C13.1654 3.2695 13.2005 3.32208 13.2244 3.37996C13.2483 3.43784 13.2606 3.49988 13.2604 3.5625V15.9521C13.2604 16.0145 13.2481 16.0762 13.2243 16.1339C13.2004 16.1915 13.1654 16.2439 13.1213 16.288C13.0772 16.3321 13.0248 16.3671 12.9672 16.3909C12.9096 16.4148 12.8478 16.4271 12.7854 16.4271H1.06875C1.00637 16.4271 0.944605 16.4148 0.886975 16.3909C0.829346 16.3671 0.776982 16.3321 0.732874 16.288C0.688766 16.2439 0.653778 16.1915 0.629907 16.1339C0.606036 16.0762 0.59375 16.0145 0.59375 15.9521Z" stroke="black" stroke-width="1.1875" stroke-linecap="round" stroke-linejoin="round"/>
<path d="M10.0938 0.59375V3.28542C10.0937 3.41139 10.1438 3.53221 10.2329 3.62129C10.322 3.71037 10.4428 3.76042 10.5688 3.76042H13.2604" stroke="black" stroke-width="1.1875" stroke-linecap="round" stroke-linejoin="round"/>
</svg>
