<svg width="19" height="18" viewBox="0 0 19 18" fill="none" xmlns="http://www.w3.org/2000/svg">
<path d="M11.8134 14.7683C12.5598 14.9847 13.3331 15.0943 14.1102 15.0938C15.3602 15.0967 16.5941 14.8117 17.7161 14.2608C17.7185 14.2106 17.7196 14.1601 17.7196 14.1094C17.7197 13.3375 17.4723 12.586 17.0138 11.9651C16.5554 11.3441 15.9099 10.8865 15.1722 10.6594C14.4345 10.4323 13.6435 10.4477 12.9152 10.7033C12.1869 10.9588 11.5597 11.4411 11.1256 12.0794M11.8134 14.7683V14.7656C11.8134 13.7917 11.564 12.8756 11.1256 12.0794M11.8134 14.7683V14.861C10.1297 15.876 8.20027 16.4104 6.23438 16.4062C4.19475 16.4062 2.28638 15.8419 0.657126 14.861L0.656251 14.7656C0.655579 13.527 1.06716 12.3234 1.82611 11.3446C2.58506 10.3658 3.6482 9.66738 4.84793 9.35952C6.04765 9.05167 7.31572 9.15187 8.45221 9.64433C9.58869 10.1368 10.5298 10.9935 11.1256 12.0794M9.18837 3.60938C9.18837 4.39259 8.87724 5.14373 8.32342 5.69755C7.76961 6.25137 7.01847 6.5625 6.23525 6.5625C5.45203 6.5625 4.70089 6.25137 4.14708 5.69755C3.59326 5.14373 3.28213 4.39259 3.28213 3.60938C3.28213 2.82616 3.59326 2.07502 4.14708 1.5212C4.70089 0.967382 5.45203 0.65625 6.23525 0.65625C7.01847 0.65625 7.76961 0.967382 8.32342 1.5212C8.87724 2.07502 9.18837 2.82616 9.18837 3.60938ZM16.4071 5.57812C16.4071 6.18729 16.1651 6.77151 15.7344 7.20226C15.3036 7.63301 14.7194 7.875 14.1102 7.875C13.5011 7.875 12.9169 7.63301 12.4861 7.20226C12.0554 6.77151 11.8134 6.18729 11.8134 5.57812C11.8134 4.96896 12.0554 4.38474 12.4861 3.95399C12.9169 3.52324 13.5011 3.28125 14.1102 3.28125C14.7194 3.28125 15.3036 3.52324 15.7344 3.95399C16.1651 4.38474 16.4071 4.96896 16.4071 5.57812Z" stroke="#515151" stroke-width="1.3125" stroke-linecap="round" stroke-linejoin="round"/>
</svg>
