<svg width="19" height="19" viewBox="0 0 19 19" fill="none" xmlns="http://www.w3.org/2000/svg">
<path d="M17.4068 13.2669V15.7669C17.4077 15.999 17.3602 16.2287 17.2672 16.4414C17.1743 16.654 17.0379 16.8449 16.8669 17.0018C16.6959 17.1587 16.4939 17.2781 16.2741 17.3525C16.0542 17.4269 15.8213 17.4545 15.5901 17.4336C13.0258 17.1549 10.5626 16.2787 8.39847 14.8752C6.38499 13.5958 4.67792 11.8887 3.39847 9.87524C1.99012 7.70125 1.11367 5.22607 0.840138 2.65024C0.819313 2.4198 0.8467 2.18754 0.920555 1.96826C0.99441 1.74898 1.11311 1.54748 1.26911 1.37659C1.42511 1.2057 1.61498 1.06917 1.82663 0.975679C2.03829 0.882189 2.26709 0.833795 2.49847 0.833577H4.99847C5.40289 0.829597 5.79496 0.972809 6.10161 1.23652C6.40825 1.50023 6.60854 1.86645 6.66514 2.26691C6.77066 3.06697 6.96635 3.85252 7.24847 4.60858C7.36059 4.90685 7.38486 5.23101 7.31839 5.54264C7.25193 5.85428 7.09752 6.14034 6.87347 6.36691L5.81514 7.42524C7.00143 9.51153 8.72885 11.2389 10.8151 12.4252L11.8735 11.3669C12.1 11.1429 12.3861 10.9885 12.6977 10.922C13.0094 10.8555 13.3335 10.8798 13.6318 10.9919C14.3879 11.274 15.1734 11.4697 15.9735 11.5752C16.3783 11.6324 16.748 11.8362 17.0122 12.1482C17.2765 12.4601 17.4169 12.8582 17.4068 13.2669Z" stroke="#181818" stroke-width="1.66667" stroke-linecap="round" stroke-linejoin="round"/>
</svg>
