<svg width="20" height="20" viewBox="0 0 20 20" fill="none" xmlns="http://www.w3.org/2000/svg">
<path fill-rule="evenodd" clip-rule="evenodd" d="M9.83695 19.9987L9.99998 20C9.77922 20 9.55851 19.9928 9.3382 19.9785C9.06558 19.9606 8.79379 19.9317 8.52352 19.8917C8.20953 19.8452 7.89794 19.7838 7.58981 19.7076C7.28607 19.6324 6.98605 19.543 6.69075 19.4395L6.68911 19.4389C6.20282 19.2683 5.73054 19.0602 5.27653 18.8164C4.95431 18.6434 4.64184 18.4528 4.34053 18.2455C4.00169 18.0125 3.6775 17.7589 3.3698 17.4862C3.26229 17.3909 3.15682 17.2933 3.05348 17.1935C1.17075 15.375 0 12.8242 0 9.99998C0 4.47717 4.47717 1.09873e-10 9.99998 1.09873e-10C11.3132 -6.15562e-06 12.6136 0.258646 13.8268 0.76119C15.0401 1.26373 16.1425 2.00033 17.0711 2.92891C17.9997 3.8575 18.7363 4.95989 19.2388 6.17315C19.7414 7.3864 20 8.68676 20 9.99998C20 12.8243 18.8292 15.3751 16.9464 17.1936C16.9463 17.1937 16.9463 17.1939 16.9464 17.1942C16.4727 17.6514 15.9554 18.0609 15.4017 18.417L15.3939 18.422C15.2684 18.5026 15.141 18.5804 15.0119 18.6553L14.9983 18.6632C14.7724 18.7937 14.5415 18.9154 14.3062 19.0279C14.2141 19.0718 14.1213 19.1144 14.028 19.1556C13.9306 19.1984 13.8326 19.2397 13.734 19.2796C13.6384 19.318 13.5422 19.355 13.4455 19.3906C13.3477 19.4264 13.2494 19.4607 13.1506 19.4936C13.0535 19.5257 12.9559 19.5564 12.8579 19.5856C12.754 19.6165 12.6497 19.6457 12.5449 19.6733C12.4429 19.7 12.3406 19.7251 12.2378 19.7487C12.1353 19.7721 12.0324 19.7939 11.9292 19.8141C11.5085 19.8963 11.0829 19.9513 10.6552 19.9789C10.5488 19.9858 10.4424 19.991 10.3359 19.9945L10.3339 19.9945C10.1683 20 10.0026 20.0014 9.83695 19.9987ZM11 14H9C7.40705 14 6.01388 14.9374 5.37342 16.308L5.301 16.474L5.36367 16.5203C6.50348 17.3322 7.86525 17.8528 9.34027 17.9732C9.3843 17.9768 9.42842 17.98 9.47264 17.9829L9.34636 17.9737C9.38933 17.9772 9.43239 17.9803 9.47555 17.9831L9.47264 17.9829C9.51539 17.9857 9.5582 17.9882 9.60108 17.9903L9.47555 17.9831C9.52008 17.986 9.56473 17.9885 9.60952 17.9906L9.60108 17.9903C9.63323 17.9918 9.66539 17.9932 9.69755 17.9944L9.99998 18L10.1254 17.9991C10.1715 17.9984 10.2176 17.9973 10.2637 17.9958L10.1371 17.9988C10.1797 17.9981 10.2223 17.9971 10.2648 17.9957L10.2637 17.9957C10.3065 17.9944 10.3493 17.9926 10.392 17.9906L10.2648 17.9957C10.3089 17.9942 10.3529 17.9925 10.397 17.9903L10.392 17.9906C10.4365 17.9884 10.4809 17.9859 10.5251 17.9831L10.397 17.9903C10.4403 17.9882 10.4836 17.9858 10.5268 17.9829L10.5252 17.983C10.5685 17.9802 10.6117 17.9771 10.6548 17.9736L10.5268 17.9829C10.5708 17.9801 10.6148 17.9768 10.6588 17.9733L10.6548 17.9736C10.6967 17.9702 10.7385 17.9665 10.7802 17.9625L10.6588 17.9733C10.7026 17.9697 10.7462 17.9658 10.7898 17.9615L10.7802 17.9625C12.2059 17.8245 13.5222 17.3122 14.6295 16.5252L14.698 16.474L14.6266 16.3081C14.0142 14.9971 12.7129 14.0823 11.2066 14.0053L11 14ZM9.99998 2.00002C5.58173 2.00002 2.00002 5.58173 2.00002 9.99998C2.00002 11.908 2.66794 13.66 3.78272 15.0348C4.81528 13.2221 6.76491 12 9 12H11C13.2352 12 15.1848 13.2222 16.2172 15.0347C17.332 13.66 18 11.908 18 9.99998C18 5.58173 14.4183 2.00002 9.99998 2.00002ZM9.99998 3C12.2092 3 14 4.79086 14 6.99998C14 9.14217 12.316 10.8911 10.1996 10.9951L9.99998 11C7.79086 11 6 9.20916 6 6.99998C6 4.8578 7.68398 3.10889 9.80034 3.00488L9.99998 3ZM9.99998 5.00002C8.89542 5.00002 8.00002 5.89542 8.00002 6.99998C8.00002 8.10455 8.89542 9 9.99998 9C11.1045 9 12 8.10455 12 6.99998C12 5.89542 11.1045 5.00002 9.99998 5.00002Z" fill="#64798B"/>
</svg>
