<svg width="16" height="16" viewBox="0 0 16 16" fill="none" xmlns="http://www.w3.org/2000/svg">
<path d="M8.07997 9.02096C8.06664 9.02096 8.04664 9.02096 8.0333 9.02096C8.0133 9.02096 7.98664 9.02096 7.96664 9.02096C6.4533 8.9743 5.31997 7.7943 5.31997 6.34096C5.31997 4.86096 6.52664 3.6543 8.00664 3.6543C9.48664 3.6543 10.6933 4.86096 10.6933 6.34096C10.6866 7.80096 9.54664 8.9743 8.09997 9.02096C8.08664 9.02096 8.08664 9.02096 8.07997 9.02096ZM7.99997 4.64763C7.06664 4.64763 6.3133 5.40763 6.3133 6.3343C6.3133 7.24763 7.02664 7.98763 7.9333 8.02096C7.9533 8.0143 8.01997 8.0143 8.08664 8.02096C8.97997 7.9743 9.67997 7.24096 9.68664 6.3343C9.68664 5.40763 8.9333 4.64763 7.99997 4.64763Z" fill="#181818"/>
<path d="M7.99987 15.1669C6.20654 15.1669 4.49321 14.5002 3.16654 13.2869C3.04654 13.1802 2.99321 13.0202 3.00654 12.8669C3.09321 12.0735 3.58654 11.3335 4.40654 10.7869C6.39321 9.46687 9.61321 9.46687 11.5932 10.7869C12.4132 11.3402 12.9065 12.0735 12.9932 12.8669C13.0132 13.0269 12.9532 13.1802 12.8332 13.2869C11.5065 14.5002 9.79321 15.1669 7.99987 15.1669ZM4.05321 12.7335C5.15987 13.6602 6.55321 14.1669 7.99987 14.1669C9.44654 14.1669 10.8399 13.6602 11.9465 12.7335C11.8265 12.3269 11.5065 11.9335 11.0332 11.6135C9.39321 10.5202 6.61321 10.5202 4.95987 11.6135C4.48654 11.9335 4.17321 12.3269 4.05321 12.7335Z" fill="#181818"/>
<path d="M8.00002 15.1673C4.04668 15.1673 0.83335 11.954 0.83335 8.00065C0.83335 4.04732 4.04668 0.833984 8.00002 0.833984C11.9533 0.833984 15.1667 4.04732 15.1667 8.00065C15.1667 11.954 11.9533 15.1673 8.00002 15.1673ZM8.00002 1.83398C4.60002 1.83398 1.83335 4.60065 1.83335 8.00065C1.83335 11.4007 4.60002 14.1673 8.00002 14.1673C11.4 14.1673 14.1667 11.4007 14.1667 8.00065C14.1667 4.60065 11.4 1.83398 8.00002 1.83398Z" fill="#181818"/>
</svg>
