<svg width="20" height="20" viewBox="0 0 20 20" fill="none" xmlns="http://www.w3.org/2000/svg">
<path d="M15.8333 5.00494H11.9342C11.602 4.7682 11.2287 4.59527 10.8333 4.49494V4.17161L13.775 2.79494C13.8956 2.7202 13.9951 2.61592 14.0641 2.49196C14.1331 2.368 14.1694 2.22848 14.1694 2.08661C14.1694 1.94473 14.1331 1.80521 14.0641 1.68125C13.9951 1.5573 13.8956 1.45301 13.775 1.37827L11.1083 0.128272C10.9001 0.0309816 10.6707 -0.0121313 10.4414 0.00293493C10.2121 0.0180011 9.99028 0.090758 9.7966 0.214452C9.60291 0.338146 9.44361 0.508768 9.33348 0.710481C9.22336 0.912193 9.16598 1.13846 9.16667 1.36827V4.49494C8.7715 4.59512 8.39847 4.76808 8.06667 5.00494H4.16667C3.06201 5.00627 2.00297 5.44568 1.22185 6.22679C0.440735 7.00791 0.00132322 8.06695 0 9.17161L0 17.505C0 18.168 0.263392 18.8039 0.732234 19.2727C1.20107 19.7416 1.83696 20.005 2.5 20.005H17.5C18.1631 20.005 18.7989 19.7416 19.2678 19.2727C19.7366 18.8039 20 18.168 20 17.505V9.17161C19.9987 8.06695 19.5593 7.00791 18.7782 6.22679C17.997 5.44568 16.938 5.00627 15.8333 5.00494ZM18.18 8.33828H16.3808C15.7182 8.33659 15.083 8.07334 14.6133 7.60578L13.6783 6.67161H15.8333C16.3486 6.67375 16.8505 6.83501 17.2706 7.13335C17.6907 7.43169 18.0083 7.85252 18.18 8.33828ZM4.16667 6.67161H6.32167L5.38667 7.60578C4.91706 8.07334 4.28185 8.33659 3.61917 8.33828H1.82C1.99174 7.85252 2.30936 7.43169 2.72942 7.13335C3.14948 6.83501 3.65145 6.67375 4.16667 6.67161ZM10.8333 18.3383H9.16667V15.8383C9.16667 15.6173 9.25447 15.4053 9.41075 15.249C9.56703 15.0927 9.77899 15.0049 10 15.0049C10.221 15.0049 10.433 15.0927 10.5893 15.249C10.7455 15.4053 10.8333 15.6173 10.8333 15.8383V18.3383ZM17.5 18.3383H12.5V15.8383C12.5 15.1752 12.2366 14.5394 11.7678 14.0705C11.2989 13.6017 10.663 13.3383 10 13.3383C9.33697 13.3383 8.70108 13.6017 8.23224 14.0705C7.7634 14.5394 7.50001 15.1752 7.50001 15.8383V18.3383H2.5C2.27899 18.3383 2.06703 18.2505 1.91075 18.0942C1.75447 17.9379 1.66667 17.726 1.66667 17.505V10.0049H3.61917C4.16652 10.0063 4.7087 9.89908 5.21434 9.68953C5.71999 9.47998 6.17906 9.17224 6.565 8.78411L8.82167 6.52828C9.13422 6.21582 9.55807 6.0403 10 6.0403C10.4419 6.0403 10.8658 6.21582 11.1783 6.52828L13.435 8.78411C13.821 9.17224 14.28 9.47998 14.7857 9.68953C15.2913 9.89908 15.8335 10.0063 16.3808 10.0049H18.3333V17.505C18.3333 17.726 18.2456 17.9379 18.0893 18.0942C17.933 18.2505 17.721 18.3383 17.5 18.3383ZM5.83334 12.5049C5.83334 12.726 5.74554 12.9379 5.58926 13.0942C5.43298 13.2505 5.22102 13.3383 5 13.3383H4.16667C3.94566 13.3383 3.73369 13.2505 3.57741 13.0942C3.42113 12.9379 3.33334 12.726 3.33334 12.5049C3.33334 12.2839 3.42113 12.072 3.57741 11.9157C3.73369 11.7594 3.94566 11.6716 4.16667 11.6716H5C5.22102 11.6716 5.43298 11.7594 5.58926 11.9157C5.74554 12.072 5.83334 12.2839 5.83334 12.5049ZM5.83334 15.8383C5.83334 16.0593 5.74554 16.2713 5.58926 16.4275C5.43298 16.5838 5.22102 16.6716 5 16.6716H4.16667C3.94566 16.6716 3.73369 16.5838 3.57741 16.4275C3.42113 16.2713 3.33334 16.0593 3.33334 15.8383C3.33334 15.6173 3.42113 15.4053 3.57741 15.249C3.73369 15.0927 3.94566 15.0049 4.16667 15.0049H5C5.22102 15.0049 5.43298 15.0927 5.58926 15.249C5.74554 15.4053 5.83334 15.6173 5.83334 15.8383ZM16.6667 12.5049C16.6667 12.726 16.5789 12.9379 16.4226 13.0942C16.2663 13.2505 16.0544 13.3383 15.8333 13.3383H15C14.779 13.3383 14.567 13.2505 14.4108 13.0942C14.2545 12.9379 14.1667 12.726 14.1667 12.5049C14.1667 12.2839 14.2545 12.072 14.4108 11.9157C14.567 11.7594 14.779 11.6716 15 11.6716H15.8333C16.0544 11.6716 16.2663 11.7594 16.4226 11.9157C16.5789 12.072 16.6667 12.2839 16.6667 12.5049ZM16.6667 15.8383C16.6667 16.0593 16.5789 16.2713 16.4226 16.4275C16.2663 16.5838 16.0544 16.6716 15.8333 16.6716H15C14.779 16.6716 14.567 16.5838 14.4108 16.4275C14.2545 16.2713 14.1667 16.0593 14.1667 15.8383C14.1667 15.6173 14.2545 15.4053 14.4108 15.249C14.567 15.0927 14.779 15.0049 15 15.0049H15.8333C16.0544 15.0049 16.2663 15.0927 16.4226 15.249C16.5789 15.4053 16.6667 15.6173 16.6667 15.8383ZM11.6667 10.0049C11.6667 10.3346 11.5689 10.6568 11.3858 10.9309C11.2027 11.205 10.9424 11.4186 10.6378 11.5447C10.3333 11.6709 9.99816 11.7039 9.67486 11.6396C9.35155 11.5753 9.05458 11.4165 8.8215 11.1835C8.58841 10.9504 8.42967 10.6534 8.36536 10.3301C8.30105 10.0068 8.33406 9.67168 8.46021 9.36714C8.58635 9.0626 8.79997 8.8023 9.07406 8.61916C9.34814 8.43603 9.67037 8.33828 10 8.33828C10.442 8.33828 10.866 8.51387 11.1785 8.82643C11.4911 9.139 11.6667 9.56292 11.6667 10.0049Z" fill="#7E1513"/>
</svg>
