<svg width="17" height="17" viewBox="0 0 17 17" fill="none" xmlns="http://www.w3.org/2000/svg">
<path d="M4.95833 9.91667C4.95833 10.1045 4.88371 10.2847 4.75087 10.4175C4.61803 10.5504 4.43786 10.625 4.25 10.625H3.54167C3.3538 10.625 3.17364 10.5504 3.0408 10.4175C2.90796 10.2847 2.83333 10.1045 2.83333 9.91667C2.83333 9.7288 2.90796 9.54864 3.0408 9.4158C3.17364 9.28296 3.3538 9.20833 3.54167 9.20833H4.25C4.43786 9.20833 4.61803 9.28296 4.75087 9.4158C4.88371 9.54864 4.95833 9.7288 4.95833 9.91667ZM7.79167 9.20833H7.08333C6.89547 9.20833 6.7153 9.28296 6.58247 9.4158C6.44963 9.54864 6.375 9.7288 6.375 9.91667C6.375 10.1045 6.44963 10.2847 6.58247 10.4175C6.7153 10.5504 6.89547 10.625 7.08333 10.625H7.79167C7.97953 10.625 8.1597 10.5504 8.29253 10.4175C8.42537 10.2847 8.5 10.1045 8.5 9.91667C8.5 9.7288 8.42537 9.54864 8.29253 9.4158C8.1597 9.28296 7.97953 9.20833 7.79167 9.20833ZM4.25 12.0417H3.54167C3.3538 12.0417 3.17364 12.1163 3.0408 12.2491C2.90796 12.382 2.83333 12.5621 2.83333 12.75C2.83333 12.9379 2.90796 13.118 3.0408 13.2509C3.17364 13.3837 3.3538 13.4583 3.54167 13.4583H4.25C4.43786 13.4583 4.61803 13.3837 4.75087 13.2509C4.88371 13.118 4.95833 12.9379 4.95833 12.75C4.95833 12.5621 4.88371 12.382 4.75087 12.2491C4.61803 12.1163 4.43786 12.0417 4.25 12.0417ZM7.79167 12.0417H7.08333C6.89547 12.0417 6.7153 12.1163 6.58247 12.2491C6.44963 12.382 6.375 12.5621 6.375 12.75C6.375 12.9379 6.44963 13.118 6.58247 13.2509C6.7153 13.3837 6.89547 13.4583 7.08333 13.4583H7.79167C7.97953 13.4583 8.1597 13.3837 8.29253 13.2509C8.42537 13.118 8.5 12.9379 8.5 12.75C8.5 12.5621 8.42537 12.382 8.29253 12.2491C8.1597 12.1163 7.97953 12.0417 7.79167 12.0417ZM4.25 3.54167H3.54167C3.3538 3.54167 3.17364 3.61629 3.0408 3.74913C2.90796 3.88197 2.83333 4.06214 2.83333 4.25C2.83333 4.43786 2.90796 4.61803 3.0408 4.75087C3.17364 4.88371 3.3538 4.95833 3.54167 4.95833H4.25C4.43786 4.95833 4.61803 4.88371 4.75087 4.75087C4.88371 4.61803 4.95833 4.43786 4.95833 4.25C4.95833 4.06214 4.88371 3.88197 4.75087 3.74913C4.61803 3.61629 4.43786 3.54167 4.25 3.54167ZM7.79167 3.54167H7.08333C6.89547 3.54167 6.7153 3.61629 6.58247 3.74913C6.44963 3.88197 6.375 4.06214 6.375 4.25C6.375 4.43786 6.44963 4.61803 6.58247 4.75087C6.7153 4.88371 6.89547 4.95833 7.08333 4.95833H7.79167C7.97953 4.95833 8.1597 4.88371 8.29253 4.75087C8.42537 4.61803 8.5 4.43786 8.5 4.25C8.5 4.06214 8.42537 3.88197 8.29253 3.74913C8.1597 3.61629 7.97953 3.54167 7.79167 3.54167ZM4.25 6.375H3.54167C3.3538 6.375 3.17364 6.44963 3.0408 6.58247C2.90796 6.7153 2.83333 6.89547 2.83333 7.08333C2.83333 7.27119 2.90796 7.45136 3.0408 7.5842C3.17364 7.71704 3.3538 7.79167 3.54167 7.79167H4.25C4.43786 7.79167 4.61803 7.71704 4.75087 7.5842C4.88371 7.45136 4.95833 7.27119 4.95833 7.08333C4.95833 6.89547 4.88371 6.7153 4.75087 6.58247C4.61803 6.44963 4.43786 6.375 4.25 6.375ZM7.79167 6.375H7.08333C6.89547 6.375 6.7153 6.44963 6.58247 6.58247C6.44963 6.7153 6.375 6.89547 6.375 7.08333C6.375 7.27119 6.44963 7.45136 6.58247 7.5842C6.7153 7.71704 6.89547 7.79167 7.08333 7.79167H7.79167C7.97953 7.79167 8.1597 7.71704 8.29253 7.5842C8.42537 7.45136 8.5 7.27119 8.5 7.08333C8.5 6.89547 8.42537 6.7153 8.29253 6.58247C8.1597 6.44963 7.97953 6.375 7.79167 6.375ZM17 7.08333V13.4583C16.9989 14.3973 16.6254 15.2975 15.9614 15.9614C15.2975 16.6254 14.3973 16.9989 13.4583 17H3.54167C2.6027 16.9989 1.70252 16.6254 1.03857 15.9614C0.374625 15.2975 0.00112473 14.3973 0 13.4583L0 3.54167C0.00112473 2.6027 0.374625 1.70252 1.03857 1.03857C1.70252 0.374625 2.6027 0.00112473 3.54167 0L7.79167 0C8.73063 0.00112473 9.63081 0.374625 10.2948 1.03857C10.9587 1.70252 11.3322 2.6027 11.3333 3.54167H13.4583C14.3973 3.54279 15.2975 3.91629 15.9614 4.58024C16.6254 5.24419 16.9989 6.14437 17 7.08333V7.08333ZM3.54167 15.5833H9.91667V3.54167C9.91667 2.97808 9.69278 2.43758 9.29427 2.03906C8.89575 1.64055 8.35525 1.41667 7.79167 1.41667H3.54167C2.97808 1.41667 2.43758 1.64055 2.03906 2.03906C1.64055 2.43758 1.41667 2.97808 1.41667 3.54167V13.4583C1.41667 14.0219 1.64055 14.5624 2.03906 14.9609C2.43758 15.3594 2.97808 15.5833 3.54167 15.5833ZM15.5833 7.08333C15.5833 6.51975 15.3594 5.97925 14.9609 5.58073C14.5624 5.18222 14.0219 4.95833 13.4583 4.95833H11.3333V15.5833H13.4583C14.0219 15.5833 14.5624 15.3594 14.9609 14.9609C15.3594 14.5624 15.5833 14.0219 15.5833 13.4583V7.08333ZM13.4583 9.20833C13.3182 9.20833 13.1813 9.24988 13.0648 9.32771C12.9483 9.40554 12.8575 9.51617 12.8039 9.6456C12.7503 9.77503 12.7363 9.91745 12.7636 10.0549C12.7909 10.1923 12.8584 10.3185 12.9575 10.4175C13.0565 10.5166 13.1827 10.5841 13.3201 10.6114C13.4575 10.6387 13.6 10.6247 13.7294 10.5711C13.8588 10.5175 13.9695 10.4267 14.0473 10.3102C14.1251 10.1937 14.1667 10.0568 14.1667 9.91667C14.1667 9.7288 14.092 9.54864 13.9592 9.4158C13.8264 9.28296 13.6462 9.20833 13.4583 9.20833ZM13.4583 12.0417C13.3182 12.0417 13.1813 12.0832 13.0648 12.161C12.9483 12.2389 12.8575 12.3495 12.8039 12.4789C12.7503 12.6084 12.7363 12.7508 12.7636 12.8882C12.7909 13.0256 12.8584 13.1518 12.9575 13.2509C13.0565 13.3499 13.1827 13.4174 13.3201 13.4447C13.4575 13.4721 13.6 13.458 13.7294 13.4044C13.8588 13.3508 13.9695 13.26 14.0473 13.1435C14.1251 13.027 14.1667 12.8901 14.1667 12.75C14.1667 12.5621 14.092 12.382 13.9592 12.2491C13.8264 12.1163 13.6462 12.0417 13.4583 12.0417ZM13.4583 6.375C13.3182 6.375 13.1813 6.41654 13.0648 6.49438C12.9483 6.57221 12.8575 6.68283 12.8039 6.81227C12.7503 6.9417 12.7363 7.08412 12.7636 7.22152C12.7909 7.35893 12.8584 7.48514 12.9575 7.5842C13.0565 7.68326 13.1827 7.75072 13.3201 7.77806C13.4575 7.80539 13.6 7.79136 13.7294 7.73775C13.8588 7.68414 13.9695 7.59335 14.0473 7.47686C14.1251 7.36038 14.1667 7.22343 14.1667 7.08333C14.1667 6.89547 14.092 6.7153 13.9592 6.58247C13.8264 6.44963 13.6462 6.375 13.4583 6.375Z" fill="#374957"/>
</svg>
