<svg width="19" height="15" viewBox="0 0 19 15" fill="none" xmlns="http://www.w3.org/2000/svg">
<path d="M17.4167 0H3.95833C3.53841 0 3.13568 0.166815 2.83875 0.463748C2.54182 0.76068 2.375 1.16341 2.375 1.58333V4.75H3.95833V1.58333H17.4167V12.6667H3.95833V9.5H2.375V12.6667C2.375 13.0866 2.54182 13.4893 2.83875 13.7863C3.13568 14.0832 3.53841 14.25 3.95833 14.25H17.4167C17.8366 14.25 18.2393 14.0832 18.5363 13.7863C18.8332 13.4893 19 13.0866 19 12.6667V1.58333C19 1.16341 18.8332 0.76068 18.5363 0.463748C18.2393 0.166815 17.8366 0 17.4167 0ZM5.54167 9.5V7.91667H0V6.33333H5.54167V4.75L8.70833 7.125L5.54167 9.5ZM15.8333 7.91667H10.2917V6.33333H15.8333V7.91667ZM15.8333 4.75H10.2917V3.16667H15.8333V4.75ZM13.4583 11.0833H10.2917V9.5H13.4583V11.0833Z" fill="#374957"/>
</svg>
