<svg width="13" height="13" viewBox="0 0 13 13" fill="none" xmlns="http://www.w3.org/2000/svg">
<path d="M3.70959 12.6014C3.29619 12.5995 2.894 12.4668 2.56072 12.2222C2.22012 11.9826 1.96597 11.6395 1.83607 11.2438C1.70617 10.8482 1.70747 10.4212 1.83976 10.0263L2.47351 8.066L0.805173 6.84617C0.470663 6.60177 0.222025 6.25783 0.0948328 5.86356C-0.0323595 5.46928 -0.0315882 5.04488 0.0970363 4.65108C0.225661 4.25727 0.475547 3.91423 0.810944 3.67105C1.14634 3.42787 1.55006 3.297 1.96434 3.29717H4.00642L4.62663 1.36342C4.75392 0.967427 5.0036 0.622051 5.33972 0.377033C5.67585 0.132015 6.08106 0 6.49701 0C6.91295 0 7.31817 0.132015 7.65429 0.377033C7.99041 0.622051 8.2401 0.967427 8.36738 1.36342V1.36342L8.98976 3.29717H11.0318C11.4461 3.29712 11.8497 3.42807 12.185 3.67129C12.5203 3.91452 12.7701 4.25755 12.8987 4.65133C13.0272 5.04512 13.028 5.46947 12.9008 5.86369C12.7736 6.2579 12.5249 6.6018 12.1905 6.84617L10.5227 8.066L11.1564 10.0263C11.2842 10.4217 11.2833 10.8475 11.1538 11.2423C11.0242 11.6372 10.7728 11.9808 10.4357 12.2237C10.0985 12.4667 9.69301 12.5964 9.27746 12.5943C8.86191 12.5921 8.45774 12.4583 8.12309 12.2119L6.49809 11.017L4.87309 12.2125C4.53686 12.4632 4.12904 12.5996 3.70959 12.6014V12.6014ZM1.96434 4.92217C1.89284 4.92216 1.82317 4.94475 1.76529 4.98672C1.7074 5.02868 1.66426 5.08787 1.64203 5.15582C1.6198 5.22378 1.61962 5.29702 1.64151 5.36508C1.6634 5.43314 1.70625 5.49254 1.76392 5.53479L3.90676 7.10075C4.04474 7.20164 4.14739 7.34348 4.2001 7.50608C4.2528 7.66868 4.25289 7.84377 4.20034 8.00642L3.38784 10.5252C3.36529 10.5935 3.36506 10.6672 3.38718 10.7357C3.4093 10.8041 3.45262 10.8638 3.51088 10.906C3.56914 10.9482 3.63931 10.9708 3.71126 10.9705C3.7832 10.9702 3.85319 10.947 3.91109 10.9043L6.01763 9.35463C6.15719 9.25194 6.32591 9.19655 6.49917 9.19655C6.67244 9.19655 6.84116 9.25194 6.98072 9.35463L9.08726 10.9038C9.14509 10.9469 9.21517 10.9704 9.28729 10.9709C9.35941 10.9714 9.4298 10.9488 9.48821 10.9065C9.54661 10.8642 9.58997 10.8043 9.61197 10.7356C9.63397 10.6669 9.63346 10.593 9.61051 10.5246L8.79801 8.00588C8.74546 7.84322 8.74554 7.66814 8.79825 7.50554C8.85096 7.34294 8.95361 7.2011 9.09159 7.10021L11.2339 5.53425C11.2915 5.49203 11.3344 5.43268 11.3563 5.36467C11.3782 5.29666 11.378 5.22346 11.3559 5.15554C11.3337 5.08761 11.2906 5.02842 11.2328 4.98641C11.175 4.94441 11.1055 4.92173 11.034 4.92163H8.39392C8.22184 4.92159 8.05421 4.86691 7.9152 4.76547C7.77618 4.66403 7.67297 4.52108 7.62042 4.35721L6.82309 1.85959C6.80113 1.79123 6.75804 1.7316 6.70002 1.6893C6.642 1.64701 6.57206 1.62421 6.50026 1.62421C6.42846 1.62421 6.35851 1.64701 6.30049 1.6893C6.24248 1.7316 6.19938 1.79123 6.17742 1.85959L5.37413 4.35775C5.32167 4.52136 5.2187 4.66412 5.08002 4.76553C4.94133 4.86694 4.77407 4.92178 4.60226 4.92217H1.96434Z" fill="#FFBD06"/>
</svg>
