<svg width="18" height="18" viewBox="0 0 18 18" fill="none" xmlns="http://www.w3.org/2000/svg">
<path d="M8.54167 0C13.2592 0 17.0833 3.8241 17.0833 8.54167C17.0833 13.2592 13.2592 17.0833 8.54167 17.0833C3.8241 17.0833 0 13.2592 0 8.54167C0 3.8241 3.8241 0 8.54167 0ZM8.54167 3.41667C8.31513 3.41667 8.09787 3.50666 7.93768 3.66685C7.77749 3.82703 7.6875 4.04429 7.6875 4.27083V8.54167C7.68755 8.76819 7.77757 8.98541 7.93777 9.14556L10.5003 11.7081C10.6614 11.8637 10.8771 11.9498 11.1011 11.9478C11.3251 11.9459 11.5393 11.856 11.6977 11.6977C11.856 11.5393 11.9459 11.3251 11.9478 11.1011C11.9498 10.8771 11.8637 10.6614 11.7081 10.5003L9.39583 8.18804V4.27083C9.39583 4.04429 9.30584 3.82703 9.14565 3.66685C8.98547 3.50666 8.76821 3.41667 8.54167 3.41667Z" fill="#1F8CF9"/>
</svg>
