<svg width="20" height="19" viewBox="0 0 20 19" fill="none" xmlns="http://www.w3.org/2000/svg">
<path d="M16.72 11.8408C17.07 10.9908 17.26 10.0808 17.26 9.08076C17.26 8.36076 17.15 7.67076 16.96 7.03076C16.31 7.18076 15.63 7.26076 14.92 7.26076C13.466 7.26232 12.0329 6.91428 10.7415 6.24598C9.45018 5.57768 8.33843 4.60871 7.5 3.42076C6.60396 5.5915 4.91172 7.3374 2.77 8.30076C2.73 8.55076 2.73 8.82076 2.73 9.08076C2.73 10.0355 2.91804 10.9808 3.2834 11.8629C3.64875 12.7449 4.18425 13.5463 4.85933 14.2214C6.22272 15.5848 8.07188 16.3508 10 16.3508C11.05 16.3508 12.06 16.1208 12.97 15.7108C13.54 16.8008 13.8 17.3408 13.78 17.3408C12.14 17.8908 10.87 18.1608 10 18.1608C7.58 18.1608 5.27 17.2108 3.57 15.5008C2.53505 14.4707 1.76627 13.2043 1.33 11.8108H0V7.26076H1.09C1.42024 5.65327 2.17949 4.16517 3.28719 2.95435C4.39489 1.74353 5.80971 0.855164 7.38153 0.383516C8.95335 -0.0881332 10.6235 -0.125471 12.2149 0.275464C13.8062 0.676399 15.2593 1.50065 16.42 2.66076C17.6798 3.91634 18.5393 5.51704 18.89 7.26076H20V11.8108H19.94L16.38 15.0808L11.08 14.4808V12.8108H15.91L16.72 11.8408ZM7.27 8.85076C7.57 8.85076 7.86 8.97076 8.07 9.19076C8.28105 9.40353 8.39947 9.69107 8.39947 9.99076C8.39947 10.2904 8.28105 10.578 8.07 10.7908C7.86 11.0008 7.57 11.1208 7.27 11.1208C6.64 11.1208 6.13 10.6208 6.13 9.99076C6.13 9.36076 6.64 8.85076 7.27 8.85076ZM12.72 8.85076C13.35 8.85076 13.85 9.36076 13.85 9.99076C13.85 10.6208 13.35 11.1208 12.72 11.1208C12.09 11.1208 11.58 10.6208 11.58 9.99076C11.58 9.68841 11.7001 9.39845 11.9139 9.18466C12.1277 8.97086 12.4177 8.85076 12.72 8.85076Z" fill="#707070"/>
</svg>
