<svg width="25" height="25" viewBox="0 0 25 25" fill="none" xmlns="http://www.w3.org/2000/svg">
<path d="M12.5 1.5625C12.2928 1.5625 12.0941 1.64481 11.9476 1.79132C11.8011 1.93784 11.7188 2.13655 11.7188 2.34375V5.46875C11.7188 5.67595 11.8011 5.87466 11.9476 6.02118C12.0941 6.16769 12.2928 6.25 12.5 6.25C12.7072 6.25 12.9059 6.16769 13.0524 6.02118C13.1989 5.87466 13.2812 5.67595 13.2812 5.46875V2.34375C13.2812 2.13655 13.1989 1.93784 13.0524 1.79132C12.9059 1.64481 12.7072 1.5625 12.5 1.5625ZM20.0758 4.14297C19.924 3.99121 19.7182 3.90596 19.5035 3.90596C19.2889 3.90596 19.083 3.99121 18.9313 4.14297L16.643 6.43203C16.5642 6.50635 16.5012 6.59572 16.4576 6.69484C16.414 6.79396 16.3908 6.90082 16.3892 7.00908C16.3877 7.11735 16.4079 7.22483 16.4486 7.32515C16.4894 7.42547 16.5498 7.5166 16.6264 7.59314C16.703 7.66968 16.7942 7.73007 16.8945 7.77074C16.9949 7.81141 17.1024 7.83153 17.2106 7.82991C17.3189 7.82829 17.4257 7.80497 17.5248 7.76132C17.6239 7.71767 17.7132 7.65457 17.7875 7.57578L20.0758 5.28672C20.2273 5.13497 20.3124 4.92929 20.3124 4.71484C20.3124 4.5004 20.2273 4.29472 20.0758 4.14297ZM6.06875 4.14297C5.9163 3.99446 5.7115 3.91197 5.49868 3.91336C5.28585 3.91475 5.08214 3.99991 4.93165 4.1504C4.78116 4.30089 4.696 4.5046 4.69461 4.71743C4.69322 4.93025 4.77571 5.13505 4.92422 5.2875L7.21328 7.57578C7.36651 7.72021 7.56999 7.79924 7.78053 7.79609C7.99107 7.79294 8.1921 7.70787 8.34094 7.55892C8.48979 7.40998 8.57472 7.20889 8.57773 6.99835C8.58073 6.78781 8.50156 6.58438 8.35703 6.43125L6.06875 4.14297ZM6.22422 17.9688L7.70625 11.6172C7.95884 10.5353 8.56998 9.57061 9.44032 8.88006C10.3107 8.18951 11.389 7.81369 12.5 7.81369C13.611 7.81369 14.6893 8.18951 15.5597 8.88006C16.43 9.57061 17.0412 10.5353 17.2937 11.6172L18.7758 17.9688H19.4258C20.6883 17.9688 21.875 18.9609 21.875 20.3672V21.8203C21.875 23.2188 20.7047 24.2188 19.4258 24.2188H5.57422C4.3125 24.2188 3.125 23.2266 3.125 21.8203V20.3672C3.125 18.9609 4.3125 17.9688 5.57422 17.9688H6.22422ZM15.8523 10.2875C15.3992 9.50234 14.5258 9.15859 13.9023 9.51875C13.2789 9.87813 13.1406 10.8062 13.5938 11.5914C14.0469 12.3758 14.9195 12.7203 15.543 12.3602C16.1672 12 16.3055 11.0719 15.8523 10.2875ZM19.4258 22.6562C19.9203 22.6562 20.3125 22.2789 20.3125 21.8203V20.3672C20.3125 19.9086 19.9125 19.5312 19.4258 19.5312H5.57422C5.0875 19.5312 4.6875 19.9086 4.6875 20.3672V21.8203C4.6875 22.2789 5.0875 22.6562 5.57422 22.6562H19.4258Z" fill="#ED1C24"/>
</svg>
