<svg width="20" height="20" viewBox="0 0 20 20" fill="none" xmlns="http://www.w3.org/2000/svg">
<path d="M14.85 16.25L16.3 17.7C15.5167 18.3167 14.675 18.8127 13.775 19.188C12.875 19.5633 11.9333 19.8007 10.95 19.9V17.9C11.65 17.8 12.3293 17.6083 12.988 17.325C13.6467 17.0417 14.2673 16.6833 14.85 16.25ZM19.95 10.95C19.8167 11.9833 19.5623 12.946 19.187 13.838C18.8117 14.73 18.3163 15.534 17.701 16.25L16.301 14.85C16.7343 14.3 17.0843 13.696 17.351 13.038C17.6177 12.38 17.801 11.684 17.901 10.95H19.95ZM17.7 3.65C18.3333 4.38333 18.846 5.2 19.238 6.1C19.63 7 19.8673 7.95 19.95 8.95H17.9C17.8 8.2 17.6167 7.49567 17.35 6.837C17.0833 6.17833 16.7333 5.58267 16.3 5.05L17.7 3.65ZM8.95 0V2C6.95 2.28333 5.29167 3.175 3.975 4.675C2.65833 6.175 2 7.93333 2 9.95C2 11.95 2.65833 13.7 3.975 15.2C5.29167 16.7 6.95 17.6 8.95 17.9V19.9C6.4 19.6 4.271 18.5043 2.563 16.613C0.855 14.7217 0.000666667 12.5007 0 9.95C0 7.36667 0.854333 5.13333 2.563 3.25C4.27167 1.36667 6.40067 0.283333 8.95 0ZM10.95 0C11.9333 0.0833333 12.875 0.312667 13.775 0.688C14.675 1.06333 15.5167 1.56733 16.3 2.2L14.9 3.65C14.3 3.2 13.6667 2.83333 13 2.55C12.3333 2.26667 11.65 2.08333 10.95 2V0ZM9.425 15.25C9.15833 14.45 8.82933 13.779 8.438 13.237C8.04667 12.695 7.66733 12.1827 7.3 11.7C6.93267 11.2173 6.62033 10.713 6.363 10.187C6.10567 9.661 5.97633 9.01533 5.975 8.25C5.975 7.15 6.36667 6.20833 7.15 5.425C7.93333 4.64167 8.875 4.25 9.975 4.25C11.075 4.25 12.0167 4.64167 12.8 5.425C13.5833 6.20833 13.975 7.15 13.975 8.25C13.975 9.01667 13.846 9.66267 13.588 10.188C13.33 10.7133 13.0173 11.2173 12.65 11.7C12.2827 12.1827 11.9037 12.6953 11.513 13.238C11.1223 13.7807 10.793 14.4513 10.525 15.25H9.425ZM9.975 9.625C10.3583 9.625 10.6833 9.49167 10.95 9.225C11.2167 8.95833 11.35 8.63333 11.35 8.25C11.35 7.86667 11.2167 7.54167 10.95 7.275C10.6833 7.00833 10.3583 6.875 9.975 6.875C9.59167 6.875 9.26667 7.00833 9 7.275C8.73333 7.54167 8.6 7.86667 8.6 8.25C8.6 8.63333 8.73333 8.95833 9 9.225C9.26667 9.49167 9.59167 9.625 9.975 9.625Z" fill="#707070"/>
</svg>
