<svg width="24" height="24" viewBox="0 0 24 24" fill="none" xmlns="http://www.w3.org/2000/svg">
<path d="M10.7899 6.75293V9.27081C10.7966 9.57748 10.7104 9.879 10.5429 10.1359C10.3753 10.3928 10.134 10.5932 9.85071 10.7107C9.66253 10.7891 9.46075 10.8296 9.25689 10.8301H6.73416C6.32717 10.8301 5.93667 10.6693 5.6477 10.3827C5.35874 10.0961 5.19474 9.70689 5.19141 9.29992V6.78203C5.19115 6.5795 5.2309 6.37891 5.30838 6.19179C5.38585 6.00466 5.49953 5.83468 5.64287 5.6916C5.78622 5.54852 5.95642 5.43517 6.14369 5.35805C6.33096 5.28093 6.53163 5.24156 6.73416 5.2422H9.25689C9.65889 5.24464 10.044 5.40389 10.3304 5.68606C10.6167 5.96822 10.7816 6.35101 10.7899 6.75293ZM10.7899 14.0252V16.5431C10.7905 16.9505 10.6293 17.3414 10.3419 17.6301C10.0545 17.9188 9.66426 18.0816 9.25689 18.0829H6.73416C6.3255 18.0829 5.93353 17.9208 5.6443 17.6321C5.35506 17.3434 5.19218 16.9517 5.19141 16.5431V14.0252C5.19346 13.6178 5.35706 13.2279 5.6463 12.941C5.93554 12.6542 6.32678 12.4938 6.73416 12.4951H9.25689C9.66298 12.4951 10.0525 12.6562 10.3399 12.9431C10.6273 13.2299 10.7892 13.6191 10.7899 14.0252ZM18.1059 6.75293V9.27081C18.1116 9.67491 17.9581 10.065 17.6785 10.3568C17.3989 10.6486 17.0156 10.8186 16.6116 10.8301H14.0986C13.6916 10.8301 13.3011 10.6693 13.0122 10.3827C12.7232 10.0961 12.5592 9.70689 12.5559 9.29992V6.78203C12.5556 6.5795 12.5953 6.37891 12.6728 6.19179C12.7503 6.00466 12.864 5.83468 13.0073 5.6916C13.1507 5.54852 13.3209 5.43517 13.5081 5.35805C13.6954 5.28093 13.8961 5.24156 14.0986 5.2422H16.6116C17.0069 5.25455 17.3822 5.41818 17.6603 5.69931C17.9384 5.98044 18.0979 6.3576 18.1059 6.75293ZM18.1059 14.0446V16.5625C18.1065 16.9632 17.9507 17.3484 17.6717 17.636C17.3926 17.9236 17.0122 18.0909 16.6116 18.1023H14.0986C13.6899 18.1023 13.298 17.9402 13.0087 17.6515C12.7195 17.3628 12.5566 16.9711 12.5559 16.5625V14.0446C12.5582 13.6373 12.7218 13.2475 13.011 12.9607C13.3002 12.6739 13.6913 12.5134 14.0986 12.5145H16.6116C17.0102 12.527 17.3884 12.6933 17.6669 12.9786C17.9455 13.2639 18.1028 13.6459 18.1059 14.0446Z" fill="#7E1513"/>
<path d="M20.6187 9.407C20.4266 9.40449 20.2431 9.32715 20.1072 9.19143C19.9713 9.0557 19.8937 8.87231 19.8909 8.68026V5.68791C19.8979 5.38471 19.843 5.08327 19.7295 4.802C19.6161 4.52074 19.4465 4.26555 19.2312 4.05201C18.8049 3.63047 18.2297 3.39379 17.6302 3.39319H14.6708C14.4782 3.39319 14.2934 3.31679 14.1569 3.18073C14.0205 3.04468 13.9436 2.86008 13.9431 2.66742C13.9434 2.47458 14.0201 2.28974 14.1566 2.15347C14.293 2.01721 14.478 1.94067 14.6708 1.94067H17.6593C18.6425 1.96545 19.5766 2.37601 20.2597 3.08367C20.6052 3.42744 20.8792 3.83633 21.0657 4.28667C21.2523 4.73701 21.3477 5.21987 21.3464 5.70731V8.69967C21.3411 8.88911 21.2621 9.06902 21.1262 9.20111C20.9903 9.33321 20.8082 9.40708 20.6187 9.407ZM17.6302 21.3463H14.6708C14.4782 21.3463 14.2934 21.2699 14.1569 21.1339C14.0205 20.9978 13.9436 20.8132 13.9431 20.6206C13.9434 20.4277 14.0201 20.2429 14.1566 20.1066C14.293 19.9704 14.478 19.8938 14.6708 19.8938H17.6593C18.1068 19.8902 18.543 19.7534 18.9123 19.5007C19.2817 19.248 19.5673 18.891 19.7328 18.4753C19.8425 18.1998 19.8963 17.9053 19.8909 17.6088V14.6456C19.8912 14.4527 19.968 14.2679 20.1044 14.1316C20.2409 13.9954 20.4258 13.9188 20.6187 13.9188C20.8115 13.9188 20.9964 13.9954 21.1329 14.1316C21.2693 14.2679 21.3461 14.4527 21.3464 14.6456V17.6088C21.3482 18.3435 21.1311 19.0621 20.7227 19.6728C20.3143 20.2835 19.7332 20.7588 19.0536 21.0378C18.6024 21.2231 18.1182 21.3192 17.6302 21.3172V21.3463ZM8.65507 21.3463H5.6666C5.17593 21.346 4.69014 21.249 4.23697 21.0609C3.7838 20.8727 3.37214 20.5972 3.02548 20.2499C2.67959 19.9031 2.40568 19.4912 2.21951 19.0381C2.03335 18.5851 1.93859 18.0996 1.94071 17.6098V14.6465C1.94097 14.4537 2.01775 14.2688 2.15419 14.1326C2.29064 13.9963 2.47559 13.9198 2.66842 13.9198C2.86125 13.9198 3.0462 13.9963 3.18265 14.1326C3.31909 14.2688 3.39588 14.4537 3.39613 14.6465V17.6098C3.39845 18.2099 3.63886 18.7845 4.06457 19.2075C4.49028 19.6305 5.06648 19.8672 5.6666 19.8657H8.65507C8.8479 19.8657 9.03285 19.9422 9.16929 20.0785C9.30574 20.2147 9.38252 20.3996 9.38278 20.5924C9.38291 20.6879 9.36416 20.7825 9.32761 20.8708C9.29106 20.959 9.23743 21.0392 9.16981 21.1066C9.10218 21.174 9.02189 21.2275 8.93355 21.2638C8.84522 21.3001 8.75058 21.3186 8.65507 21.3182V21.3463ZM2.66842 9.407C2.47637 9.40449 2.29287 9.32715 2.15696 9.19143C2.02106 9.0557 1.94347 8.87231 1.94071 8.68026V5.68791C1.94328 4.71007 2.33419 3.7733 3.02743 3.08367C3.72716 2.39036 4.67186 2.00063 5.65689 1.99889H8.64536C8.8382 1.99889 9.02315 2.07543 9.15959 2.21169C9.29604 2.34795 9.37282 2.5328 9.37308 2.72563C9.37256 2.9183 9.29567 3.1029 9.15925 3.23895C9.02283 3.375 8.83803 3.45141 8.64536 3.4514H5.65689C5.0567 3.4496 4.48035 3.68623 4.05459 4.10927C3.62882 4.53231 3.38849 5.10712 3.38643 5.70731V8.69967C3.38119 8.88745 3.30353 9.06592 3.1697 9.19776C3.03588 9.32959 2.85626 9.40457 2.66842 9.407Z" fill="#7E1513"/>
</svg>
