<svg width="16" height="16" viewBox="0 0 16 16" fill="none" xmlns="http://www.w3.org/2000/svg">
<path d="M10.6696 10.6696L15.25 15.25M6.59821 12.1964C7.33338 12.1964 8.06135 12.0516 8.74056 11.7703C9.41977 11.489 10.0369 11.0766 10.5567 10.5567C11.0766 10.0369 11.489 9.41977 11.7703 8.74056C12.0516 8.06135 12.1964 7.33338 12.1964 6.59821C12.1964 5.86305 12.0516 5.13508 11.7703 4.45587C11.489 3.77666 11.0766 3.15952 10.5567 2.63968C10.0369 2.11984 9.41977 1.70748 8.74056 1.42614C8.06135 1.1448 7.33338 1 6.59821 1C5.11348 1 3.68955 1.58981 2.63968 2.63968C1.58981 3.68955 1 5.11348 1 6.59821C1 8.08295 1.58981 9.50688 2.63968 10.5567C3.68955 11.6066 5.11348 12.1964 6.59821 12.1964Z" stroke="#0A0A0A" stroke-width="2"/>
</svg>
