<svg width="11" height="14" viewBox="0 0 11 14" fill="none" xmlns="http://www.w3.org/2000/svg">
<path d="M5.45861 13.7666C5.3879 13.7666 5.3133 13.7601 5.2348 13.7471C5.1563 13.7341 5.08352 13.7146 5.01646 13.6886C3.48129 13.1038 2.26142 12.1119 1.35685 10.7129C0.452284 9.31394 0 7.79957 0 6.16978V2.8299C0 2.56476 0.0766805 2.32485 0.230041 2.11014C0.383402 1.89544 0.579652 1.73948 0.818791 1.64226L5.01802 0.0826588C5.16982 0.0275529 5.31668 0 5.45861 0C5.60053 0 5.74765 0.0275529 5.89997 0.0826588L10.0984 1.64226C10.3376 1.73948 10.5338 1.89544 10.6872 2.11014C10.8405 2.32485 10.9172 2.56476 10.9172 2.8299V6.16978C10.9172 7.79957 10.4649 9.31394 9.56036 10.7129C8.65579 12.1119 7.43592 13.1038 5.90075 13.6886C5.83317 13.7146 5.76039 13.7341 5.68241 13.7471C5.60443 13.7601 5.52983 13.7666 5.45861 13.7666Z" fill="#7E1513"/>
</svg>
