<svg width="35" height="35" viewBox="0 0 35 35" fill="none" xmlns="http://www.w3.org/2000/svg">
<path d="M12.4262 5.92018C14.6271 1.97339 15.7268 0 17.3718 0C19.0169 0 20.1165 1.97339 22.3175 5.92018L22.8873 6.94162C23.5126 8.06381 23.8253 8.62491 24.3117 8.99492C24.7981 9.36493 25.4061 9.50217 26.6221 9.77663L27.7269 10.0268C32.0003 10.9944 34.1352 11.4773 34.6442 13.1119C35.1515 14.7449 33.6957 16.449 30.7826 19.8555L30.0286 20.7363C29.2018 21.7038 28.7866 22.1885 28.6007 22.7861C28.4148 23.3854 28.4774 24.0316 28.6024 25.3223L28.7171 26.4984C29.1566 31.0445 29.3772 33.3166 28.0466 34.3259C26.7159 35.3352 24.7147 34.4145 20.7158 32.5731L19.6788 32.0972C18.5427 31.5726 17.9746 31.312 17.3718 31.312C16.769 31.312 16.201 31.5726 15.0649 32.0972L14.0296 32.5731C10.0289 34.4145 8.02774 35.3352 6.69883 34.3277C5.36644 33.3166 5.58706 31.0445 6.02655 26.4984L6.1412 25.3241C6.26628 24.0316 6.32882 23.3854 6.1412 22.7878C5.95707 22.1885 5.54189 21.7038 4.71501 20.738L3.96109 19.8555C1.04791 16.4507 -0.40782 14.7466 0.0994253 13.1119C0.606671 11.4773 2.74509 10.9926 7.01846 10.0268L8.12328 9.77663C9.33755 9.50217 9.94381 9.36493 10.4319 8.99492C10.9201 8.62491 11.231 8.06381 11.8564 6.94162L12.4262 5.92018Z" fill="#FFD041"/>
</svg>
