<svg width="63" height="71" viewBox="0 0 63 71" fill="none" xmlns="http://www.w3.org/2000/svg">
<path d="M18.9 32.4C15.3196 32.4 11.8858 30.9777 9.35406 28.4459C6.82232 25.9142 5.4 22.4804 5.4 18.9V8.1C5.4 7.38392 5.68446 6.69716 6.19081 6.19081C6.69716 5.68446 7.38392 5.4 8.1 5.4H10.8C11.5161 5.4 12.2028 5.11554 12.7092 4.60919C13.2155 4.10284 13.5 3.41609 13.5 2.7C13.5 1.98392 13.2155 1.29716 12.7092 0.790812C12.2028 0.284463 11.5161 0 10.8 0H8.1C5.95175 0 3.89148 0.853391 2.37244 2.37244C0.853391 3.89148 0 5.95175 0 8.1V18.9C0.00347064 21.9503 0.747284 24.9542 2.16756 27.6536C3.58783 30.3531 5.64212 32.6675 8.154 34.398C10.5698 36.5236 12.5286 39.1178 13.9117 42.0232C15.2948 44.9286 16.0733 48.0847 16.2 51.3C16.2 56.3126 18.1912 61.1199 21.7357 64.6643C25.2801 68.2088 30.0874 70.2 35.1 70.2C40.1126 70.2 44.9199 68.2088 48.4643 64.6643C52.0088 61.1199 54 56.3126 54 51.3V48.222C56.5452 47.5648 58.7633 46.002 60.2386 43.8264C61.7139 41.6508 62.3451 39.0118 62.0139 36.4041C61.6827 33.7964 60.4118 31.399 58.4394 29.6613C56.4671 27.9236 53.9286 26.9649 51.3 26.9649C48.6714 26.9649 46.1329 27.9236 44.1606 29.6613C42.1882 31.399 40.9173 33.7964 40.5861 36.4041C40.2549 39.0118 40.8861 41.6508 42.3614 43.8264C43.8367 46.002 46.0548 47.5648 48.6 48.222V51.3C48.6 54.8804 47.1777 58.3142 44.6459 60.8459C42.1142 63.3777 38.6804 64.8 35.1 64.8C31.5196 64.8 28.0858 63.3777 25.5541 60.8459C23.0223 58.3142 21.6 54.8804 21.6 51.3C21.7336 48.0807 22.5205 44.9222 23.913 42.0166C25.3055 39.1109 27.2744 36.5189 29.7 34.398C32.2019 32.6615 34.2457 30.3444 35.6564 27.6454C37.067 24.9463 37.8026 21.9455 37.8 18.9V8.1C37.8 5.95175 36.9466 3.89148 35.4276 2.37244C33.9085 0.853391 31.8483 0 29.7 0H27C26.2839 0 25.5972 0.284463 25.0908 0.790812C24.5845 1.29716 24.3 1.98392 24.3 2.7C24.3 3.41609 24.5845 4.10284 25.0908 4.60919C25.5972 5.11554 26.2839 5.4 27 5.4H29.7C30.4161 5.4 31.1028 5.68446 31.6092 6.19081C32.1155 6.69716 32.4 7.38392 32.4 8.1V18.9C32.4 20.6728 32.0508 22.4283 31.3724 24.0662C30.6939 25.7041 29.6995 27.1924 28.4459 28.4459C27.1924 29.6995 25.7041 30.6939 24.0662 31.3724C22.4283 32.0508 20.6728 32.4 18.9 32.4ZM51.3 43.2C49.8678 43.2 48.4943 42.6311 47.4816 41.6184C46.4689 40.6057 45.9 39.2322 45.9 37.8C45.9 36.3678 46.4689 34.9943 47.4816 33.9816C48.4943 32.9689 49.8678 32.4 51.3 32.4C52.7322 32.4 54.1057 32.9689 55.1184 33.9816C56.1311 34.9943 56.7 36.3678 56.7 37.8C56.7 39.2322 56.1311 40.6057 55.1184 41.6184C54.1057 42.6311 52.7322 43.2 51.3 43.2Z" fill="#7E1513" fill-opacity="0.4"/>
</svg>
