<svg width="13" height="13" viewBox="0 0 13 13" fill="none" xmlns="http://www.w3.org/2000/svg">
<path d="M10.2917 6.47314C10.2917 5.41689 9.92387 4.52098 9.18829 3.78539C8.45271 3.04981 7.55661 2.68184 6.5 2.68148V1.59814C7.17708 1.59814 7.81138 1.72688 8.40287 1.98435C8.99438 2.24183 9.50896 2.58939 9.94663 3.02706C10.3843 3.46473 10.7319 3.97931 10.9893 4.57081C11.2468 5.16231 11.3754 5.79642 11.375 6.47314H10.2917ZM8.125 6.47314C8.125 6.02176 7.96701 5.63807 7.65104 5.3221C7.33507 5.00613 6.95139 4.84814 6.5 4.84814V3.76481C7.24931 3.76481 7.88811 4.02896 8.41642 4.55727C8.94472 5.08558 9.20869 5.7242 9.20833 6.47314H8.125ZM10.8063 11.3752C9.67778 11.3752 8.56285 11.1293 7.46146 10.6375C6.36007 10.1456 5.35799 9.44816 4.45521 8.54502C3.55243 7.64188 2.85512 6.6398 2.36329 5.53877C1.87146 4.43774 1.62536 3.32281 1.625 2.19398C1.625 2.03148 1.67917 1.89606 1.7875 1.78773C1.89583 1.67939 2.03125 1.62523 2.19375 1.62523H4.3875C4.51389 1.62523 4.62674 1.6682 4.72604 1.75414C4.82535 1.84009 4.88403 1.94156 4.90208 2.05856L5.25417 3.95439C5.27222 4.09884 5.26771 4.22071 5.24063 4.32002C5.21354 4.41932 5.16389 4.50509 5.09167 4.57731L3.77813 5.90439C3.95868 6.23842 4.173 6.56107 4.42108 6.87235C4.66917 7.18363 4.94235 7.48389 5.24063 7.77314C5.52049 8.05301 5.81389 8.31264 6.12083 8.55206C6.42778 8.79148 6.75278 9.01031 7.09583 9.20856L8.36875 7.93564C8.45 7.85439 8.55617 7.79355 8.68725 7.7531C8.81833 7.71266 8.94689 7.70128 9.07292 7.71898L10.9417 8.09814C11.0681 8.13425 11.1719 8.1998 11.2531 8.29477C11.3344 8.38974 11.375 8.49573 11.375 8.61273V10.8065C11.375 10.969 11.3208 11.1044 11.2125 11.2127C11.1042 11.3211 10.9688 11.3752 10.8063 11.3752Z" fill="#7E1513"/>
</svg>
