<svg width="18" height="18" viewBox="0 0 18 18" fill="none" xmlns="http://www.w3.org/2000/svg">
<g clip-path="url(#clip0_172_28637)">
<path d="M2 2.5C1.46957 2.5 0.960859 2.71071 0.585786 3.08579C0.210714 3.46086 0 3.96957 0 4.5L0 12.3135L13.228 2.5H2Z" fill="#1EB53A"/>
<path d="M16 15.5C16.5304 15.5 17.0391 15.2893 17.4142 14.9143C17.7893 14.5392 18 14.0305 18 13.5V5.66504L4.7395 15.5H16Z" fill="#00A3DD"/>
<path d="M16 2.5H14.734L0 13.319V13.5C0 14.0304 0.210714 14.5391 0.585786 14.9142C0.960859 15.2893 1.46957 15.5 2 15.5H3.2335L18 4.659V4.5C18 3.96957 17.7893 3.46086 17.4142 3.08579C17.0391 2.71071 16.5304 2.5 16 2.5Z" fill="#141414"/>
<path d="M13.228 2.5L0 12.3135V13.319L14.734 2.5H13.228ZM4.7395 15.5L18 5.665V4.659L3.2335 15.5H4.7395Z" fill="#FBD035"/>
</g>
<defs>
<clipPath id="clip0_172_28637">
<rect width="18" height="18" fill="white"/>
</clipPath>
</defs>
</svg>
