<svg width="24" height="24" viewBox="0 0 24 24" fill="none" xmlns="http://www.w3.org/2000/svg">
<g clip-path="url(#clip0_483_8018)">
<path d="M11.0068 2.57812L10.9998 18.0161C10.9998 18.2813 11.1052 18.5357 11.2927 18.7232C11.4802 18.9108 11.7346 19.0161 11.9998 19.0161C12.265 19.0161 12.5194 18.9108 12.7069 18.7232C12.8945 18.5357 12.9998 18.2813 12.9998 18.0161L13.0068 2.59512L15.9188 5.50812C16.1063 5.69559 16.3606 5.8009 16.6258 5.8009C16.891 5.8009 17.1453 5.69559 17.3328 5.50812C17.5203 5.32059 17.6256 5.06628 17.6256 4.80112C17.6256 4.53595 17.5203 4.28164 17.3328 4.09412L14.1218 0.879115C13.8432 0.600336 13.5124 0.379186 13.1483 0.228301C12.7842 0.0774169 12.3939 -0.000244141 11.9998 -0.000244141C11.6057 -0.000244141 11.2154 0.0774169 10.8513 0.228301C10.4872 0.379186 10.1564 0.600336 9.87781 0.879115L6.66681 4.09112C6.47934 4.27864 6.37402 4.53295 6.37402 4.79812C6.37402 5.06328 6.47934 5.31759 6.66681 5.50512C6.85434 5.69259 7.10865 5.7979 7.37381 5.7979C7.63897 5.7979 7.89328 5.69259 8.08081 5.50512L11.0068 2.57812Z" fill="#7E1513"/>
<path d="M22 16.9995V20.9995C22 21.2647 21.8946 21.5191 21.7071 21.7066C21.5196 21.8941 21.2652 21.9995 21 21.9995H3C2.73478 21.9995 2.48043 21.8941 2.29289 21.7066C2.10536 21.5191 2 21.2647 2 20.9995V16.9995C2 16.7343 1.89464 16.4799 1.70711 16.2924C1.51957 16.1049 1.26522 15.9995 1 15.9995C0.734784 15.9995 0.48043 16.1049 0.292893 16.2924C0.105357 16.4799 0 16.7343 0 16.9995L0 20.9995C0 21.7952 0.31607 22.5582 0.87868 23.1208C1.44129 23.6834 2.20435 23.9995 3 23.9995H21C21.7956 23.9995 22.5587 23.6834 23.1213 23.1208C23.6839 22.5582 24 21.7952 24 20.9995V16.9995C24 16.7343 23.8946 16.4799 23.7071 16.2924C23.5196 16.1049 23.2652 15.9995 23 15.9995C22.7348 15.9995 22.4804 16.1049 22.2929 16.2924C22.1054 16.4799 22 16.7343 22 16.9995Z" fill="#7E1513"/>
</g>
<defs>
<clipPath id="clip0_483_8018">
<rect width="24" height="24" fill="white"/>
</clipPath>
</defs>
</svg>
