<svg width="20" height="15" viewBox="0 0 20 15" fill="none" xmlns="http://www.w3.org/2000/svg">
<mask id="mask0_165_28201" style="mask-type:luminance" maskUnits="userSpaceOnUse" x="0" y="0" width="20" height="15">
<rect width="20" height="15" fill="white"/>
</mask>
<g mask="url(#mask0_165_28201)">
<path fill-rule="evenodd" clip-rule="evenodd" d="M0 0H20V15H0V0Z" fill="#DF1C41"/>
<path d="M20 13.75V15H0V13.75H20ZM20 12.5H0V11.25H20V12.5ZM20 10H0V8.75H20V10ZM20 7.5H0V6.25H20V7.5ZM20 5H0V3.75H20V5ZM20 2.5H0V1.25H20V2.5Z" fill="#F7FCFF"/>
<rect width="11.25" height="8.75" fill="#2E42A5"/>
<path d="M9.76343 1.37598H10.4187L9.90405 1.89648L10.1033 2.71777L9.46265 2.25586L8.9314 2.62598H9.1687L8.65405 3.14648L8.83081 3.87598H9.20386L9.46167 3.20605L9.76343 3.87598H10.4187L9.90405 4.39648L10.1033 5.21777L9.46265 4.75586L8.9314 5.12598H9.1687L8.65405 5.64648L8.83081 6.37598H9.20386L9.46167 5.70605L9.76343 6.37598H10.4187L9.90405 6.89648L10.1033 7.71777L9.46265 7.25586L8.79956 7.71777L9.02319 6.89648L8.4353 6.37598H8.72632L8.21265 6.00586L7.6814 6.37598H7.9187L7.40405 6.89648L7.60327 7.71777L6.96265 7.25586L6.29956 7.71777L6.52319 6.89648L5.9353 6.37598H6.22632L5.71265 6.00586L5.1814 6.37598H5.4187L4.90405 6.89648L5.10327 7.71777L4.46265 7.25586L3.79956 7.71777L4.02319 6.89648L3.4353 6.37598H3.72632L3.21265 6.00586L2.6814 6.37598H2.9187L2.40405 6.89648L2.60327 7.71777L1.96265 7.25586L1.29956 7.71777L1.52319 6.89648L0.935303 6.37598H1.70386L1.96167 5.70605L2.26343 6.37598H2.57495L2.77319 5.64648L2.1853 5.12598H2.47632L1.96265 4.75586L1.29956 5.21777L1.52319 4.39648L0.935303 3.87598H1.70386L1.96167 3.20605L2.26343 3.87598H2.57495L2.77319 3.14648L2.1853 2.62598H2.47632L1.96265 2.25586L1.29956 2.71777L1.52319 1.89648L0.935303 1.37598H1.70386L1.96167 0.706055L2.26343 1.37598H2.9187L2.40405 1.89648L2.58081 2.62598H2.95386L3.21167 1.95605L3.51343 2.62598H3.82495L4.02319 1.89648L3.4353 1.37598H4.20386L4.46167 0.706055L4.76343 1.37598H5.4187L4.90405 1.89648L5.08081 2.62598H5.45386L5.71167 1.95605L6.01343 2.62598H6.32495L6.52319 1.89648L5.9353 1.37598H6.70386L6.96167 0.706055L7.26343 1.37598H7.9187L7.40405 1.89648L7.58081 2.62598H7.95386L8.21167 1.95605L8.51343 2.62598H8.82495L9.02319 1.89648L8.4353 1.37598H9.20386L9.46167 0.706055L9.76343 1.37598ZM6.4314 5.12598H6.6687L6.15405 5.64648L6.33081 6.37598H6.70386L6.96167 5.70605L7.26343 6.37598H7.57495L7.77319 5.64648L7.1853 5.12598H7.47632L6.96265 4.75586L6.4314 5.12598ZM3.9314 5.12598H4.1687L3.65405 5.64648L3.83081 6.37598H4.20386L4.46167 5.70605L4.76343 6.37598H5.07495L5.27319 5.64648L4.6853 5.12598H4.97632L4.46265 4.75586L3.9314 5.12598ZM7.6814 3.87598H7.9187L7.40405 4.39648L7.58081 5.12598H7.95386L8.21167 4.45605L8.51343 5.12598H8.82495L9.02319 4.39648L8.4353 3.87598H8.72632L8.21265 3.50586L7.6814 3.87598ZM2.6814 3.87598H2.9187L2.40405 4.39648L2.58081 5.12598H2.95386L3.21167 4.45605L3.51343 5.12598H3.82495L4.02319 4.39648L3.4353 3.87598H3.72632L3.21265 3.50586L2.6814 3.87598ZM5.1814 3.87598H5.4187L4.90405 4.39648L5.08081 5.12598H5.45386L5.71167 4.45605L6.01343 5.12598H6.32495L6.52319 4.39648L5.9353 3.87598H6.22632L5.71265 3.50586L5.1814 3.87598ZM3.9314 2.62598H4.1687L3.65405 3.14648L3.83081 3.87598H4.20386L4.46167 3.20605L4.76343 3.87598H5.07495L5.27319 3.14648L4.6853 2.62598H4.97632L4.46265 2.25586L3.9314 2.62598ZM6.4314 2.62598H6.6687L6.15405 3.14648L6.33081 3.87598H6.70386L6.96167 3.20605L7.26343 3.87598H7.57495L7.77319 3.14648L7.1853 2.62598H7.47632L6.96265 2.25586L6.4314 2.62598Z" fill="#F7FCFF"/>
</g>
</svg>
