<svg width="17" height="17" viewBox="0 0 17 17" fill="none" xmlns="http://www.w3.org/2000/svg">
<g clip-path="url(#clip0_311_4514)">
<path d="M14.875 17.0006H13.4583V13.4284C13.4578 12.8731 13.2369 12.3407 12.8442 11.948C12.4516 11.5553 11.9191 11.3345 11.3638 11.3339H5.63621C5.08087 11.3345 4.54845 11.5553 4.15576 11.948C3.76308 12.3407 3.54223 12.8731 3.54167 13.4284V17.0006H2.125V13.4284C2.12612 12.4976 2.49642 11.6051 3.15465 10.9469C3.81289 10.2887 4.70532 9.91836 5.63621 9.91724H11.3638C12.2947 9.91836 13.1871 10.2887 13.8453 10.9469C14.5036 11.6051 14.8739 12.4976 14.875 13.4284V17.0006Z" fill="#374957"/>
<path d="M8.49988 8.5C7.65931 8.5 6.83762 8.25074 6.13871 7.78375C5.4398 7.31675 4.89506 6.65299 4.57339 5.87641C4.25172 5.09982 4.16756 4.24529 4.33154 3.42087C4.49553 2.59645 4.9003 1.83917 5.49468 1.2448C6.08905 0.650425 6.84633 0.245652 7.67075 0.0816645C8.49517 -0.0823227 9.3497 0.00184147 10.1263 0.323514C10.9029 0.645186 11.5666 1.18992 12.0336 1.88883C12.5006 2.58774 12.7499 3.40943 12.7499 4.25C12.7488 5.37683 12.3006 6.45718 11.5038 7.25396C10.7071 8.05075 9.62671 8.49888 8.49988 8.5V8.5ZM8.49988 1.41667C7.9395 1.41667 7.3917 1.58284 6.92576 1.89417C6.45983 2.2055 6.09667 2.64801 5.88222 3.16573C5.66777 3.68346 5.61166 4.25315 5.72099 4.80276C5.83031 5.35237 6.10016 5.85722 6.49641 6.25347C6.89266 6.64972 7.39751 6.91957 7.94712 7.02889C8.49674 7.13822 9.06643 7.08211 9.58415 6.86766C10.1019 6.65321 10.5444 6.29006 10.8557 5.82412C11.167 5.35818 11.3332 4.81038 11.3332 4.25C11.3332 3.49856 11.0347 2.77789 10.5033 2.24653C9.972 1.71518 9.25133 1.41667 8.49988 1.41667Z" fill="#374957"/>
</g>
<defs>
<clipPath id="clip0_311_4514">
<rect width="17" height="17" fill="white"/>
</clipPath>
</defs>
</svg>
