<svg width="19" height="19" viewBox="0 0 19 19" fill="none" xmlns="http://www.w3.org/2000/svg">
<g clip-path="url(#clip0_1472_7492)">
<path d="M18.2082 8.70898H16.6248V7.12565C16.6248 6.91569 16.5414 6.71432 16.393 6.56586C16.2445 6.41739 16.0431 6.33398 15.8332 6.33398C15.6232 6.33398 15.4218 6.41739 15.2734 6.56586C15.1249 6.71432 15.0415 6.91569 15.0415 7.12565V8.70898H13.4582C13.2482 8.70898 13.0468 8.79239 12.8984 8.94085C12.7499 9.08932 12.6665 9.29068 12.6665 9.50065C12.6665 9.71061 12.7499 9.91197 12.8984 10.0604C13.0468 10.2089 13.2482 10.2923 13.4582 10.2923H15.0415V11.8756C15.0415 12.0856 15.1249 12.287 15.2734 12.4354C15.4218 12.5839 15.6232 12.6673 15.8332 12.6673C16.0431 12.6673 16.2445 12.5839 16.393 12.4354C16.5414 12.287 16.6248 12.0856 16.6248 11.8756V10.2923H18.2082C18.4181 10.2923 18.6195 10.2089 18.768 10.0604C18.9164 9.91197 18.9998 9.71061 18.9998 9.50065C18.9998 9.29068 18.9164 9.08932 18.768 8.94085C18.6195 8.79239 18.4181 8.70898 18.2082 8.70898Z" fill="#374957"/>
<path d="M7.125 9.5C8.06446 9.5 8.98283 9.22142 9.76396 8.69948C10.5451 8.17755 11.1539 7.4357 11.5134 6.56775C11.8729 5.6998 11.967 4.74473 11.7837 3.82332C11.6005 2.90191 11.1481 2.05554 10.4838 1.39125C9.81946 0.726946 8.97309 0.274552 8.05168 0.0912721C7.13027 -0.0920077 6.1752 0.00205811 5.30725 0.361574C4.43931 0.721091 3.69746 1.32991 3.17552 2.11104C2.65358 2.89218 2.375 3.81054 2.375 4.75C2.37626 6.00939 2.87711 7.21685 3.76763 8.10737C4.65816 8.9979 5.86561 9.49874 7.125 9.5ZM7.125 1.58334C7.75131 1.58334 8.36355 1.76906 8.88431 2.11702C9.40506 2.46497 9.81094 2.95954 10.0506 3.53817C10.2903 4.1168 10.353 4.75352 10.2308 5.36779C10.1086 5.98206 9.80704 6.54631 9.36417 6.98917C8.92131 7.43204 8.35706 7.73364 7.74279 7.85582C7.12851 7.97801 6.4918 7.9153 5.91317 7.67562C5.33454 7.43594 4.83997 7.03006 4.49201 6.50931C4.14406 5.98855 3.95833 5.37631 3.95833 4.75C3.95833 3.91015 4.29196 3.1047 4.88583 2.51083C5.47969 1.91697 6.28515 1.58334 7.125 1.58334Z" fill="#374957"/>
<path d="M7.125 11.084C5.23598 11.0861 3.42492 11.8374 2.08918 13.1732C0.753436 14.5089 0.00209543 16.32 0 18.209C0 18.4189 0.0834075 18.6203 0.231874 18.7688C0.38034 18.9172 0.581704 19.0007 0.791667 19.0007C1.00163 19.0007 1.20299 18.9172 1.35146 18.7688C1.49993 18.6203 1.58333 18.4189 1.58333 18.209C1.58333 16.7392 2.16719 15.3297 3.20645 14.2904C4.24571 13.2512 5.65526 12.6673 7.125 12.6673C8.59474 12.6673 10.0043 13.2512 11.0436 14.2904C12.0828 15.3297 12.6667 16.7392 12.6667 18.209C12.6667 18.4189 12.7501 18.6203 12.8985 18.7688C13.047 18.9172 13.2484 19.0007 13.4583 19.0007C13.6683 19.0007 13.8697 18.9172 14.0181 18.7688C14.1666 18.6203 14.25 18.4189 14.25 18.209C14.2479 16.32 13.4966 14.5089 12.1608 13.1732C10.8251 11.8374 9.01402 11.0861 7.125 11.084Z" fill="#374957"/>
</g>
<defs>
<clipPath id="clip0_1472_7492">
<rect width="19" height="19" fill="white"/>
</clipPath>
</defs>
</svg>
