<svg width="57" height="46" viewBox="0 0 57 46" fill="none" xmlns="http://www.w3.org/2000/svg">
<path d="M37.3538 40.53C39.0338 41.1644 41.1294 41.5625 43.75 41.5625C46.3663 41.5625 48.4619 41.1688 50.1375 40.5344C56.8663 37.9881 56.8663 31.6094 56.8663 31.6094C56.8663 28.6475 54.4644 26.25 51.5069 26.25H35.9844C33.0225 26.25 30.625 28.6475 30.625 31.6094C30.625 31.6094 30.625 37.9838 37.3538 40.5344" fill="url(#paint0_linear_159_25562)"/>
<path d="M37.3538 40.53C39.0338 41.1644 41.1294 41.5625 43.75 41.5625C46.3663 41.5625 48.4619 41.1688 50.1375 40.5344C56.8663 37.9881 56.8663 31.6094 56.8663 31.6094C56.8663 28.6475 54.4644 26.25 51.5069 26.25H35.9844C33.0225 26.25 30.625 28.6475 30.625 31.6094C30.625 31.6094 30.625 37.9838 37.3538 40.5344" fill="url(#paint1_radial_159_25562)" fill-opacity="0.5"/>
<path d="M35 32.8125C35 31.072 34.3086 29.4028 33.0779 28.1721C31.8472 26.9414 30.178 26.25 28.4375 26.25H6.5625C4.82202 26.25 3.15282 26.9414 1.92211 28.1721C0.691404 29.4028 0 31.072 0 32.8125V33.1406C0 33.1406 0 45.9375 17.5 45.9375C34.1775 45.9375 34.9606 34.3175 35 33.2237V32.8125Z" fill="url(#paint2_linear_159_25562)"/>
<path d="M35 32.8125C35 31.072 34.3086 29.4028 33.0779 28.1721C31.8472 26.9414 30.178 26.25 28.4375 26.25H6.5625C4.82202 26.25 3.15282 26.9414 1.92211 28.1721C0.691404 29.4028 0 31.072 0 32.8125V33.1406C0 33.1406 0 45.9375 17.5 45.9375C34.1775 45.9375 34.9606 34.3175 35 33.2237V32.8125Z" fill="url(#paint3_linear_159_25562)"/>
<path d="M43.75 21.875C46.0706 21.875 48.2962 20.9531 49.9372 19.3122C51.5781 17.6712 52.5 15.4456 52.5 13.125C52.5 10.8044 51.5781 8.57876 49.9372 6.93782C48.2962 5.29687 46.0706 4.375 43.75 4.375C41.4294 4.375 39.2038 5.29687 37.5628 6.93782C35.9219 8.57876 35 10.8044 35 13.125C35 15.4456 35.9219 17.6712 37.5628 19.3122C39.2038 20.9531 41.4294 21.875 43.75 21.875Z" fill="url(#paint4_linear_159_25562)"/>
<path d="M28.4375 10.9375C28.4375 13.8383 27.2852 16.6203 25.234 18.6715C23.1828 20.7227 20.4008 21.875 17.5 21.875C14.5992 21.875 11.8172 20.7227 9.76602 18.6715C7.71484 16.6203 6.5625 13.8383 6.5625 10.9375C6.5625 8.03669 7.71484 5.2547 9.76602 3.20352C11.8172 1.15234 14.5992 0 17.5 0C20.4008 0 23.1828 1.15234 25.234 3.20352C27.2852 5.2547 28.4375 8.03669 28.4375 10.9375Z" fill="url(#paint5_linear_159_25562)"/>
<defs>
<linearGradient id="paint0_linear_159_25562" x1="36.8638" y1="28.2844" x2="42.4594" y2="43.5881" gradientUnits="userSpaceOnUse">
<stop offset="0.125" stop-color="#7E1513"/>
<stop offset="1" stop-color="#E42622"/>
</linearGradient>
<radialGradient id="paint1_radial_159_25562" cx="0" cy="0" r="1" gradientUnits="userSpaceOnUse" gradientTransform="translate(27.3 33.9062) rotate(-7.36814) scale(17.4128 18.0431)">
<stop offset="0.392" stop-color="#FE3632"/>
<stop offset="1" stop-color="#7E1513"/>
</radialGradient>
<linearGradient id="paint2_linear_159_25562" x1="8.32125" y1="28.8663" x2="15.3125" y2="48.7113" gradientUnits="userSpaceOnUse">
<stop offset="0.125" stop-color="#7E1513"/>
<stop offset="1" stop-color="#FE3632"/>
</linearGradient>
<linearGradient id="paint3_linear_159_25562" x1="17.5" y1="23.905" x2="27.3437" y2="56.6081" gradientUnits="userSpaceOnUse">
<stop stop-color="#E42622"/>
<stop offset="1" stop-color="#7E1513"/>
</linearGradient>
<linearGradient id="paint4_linear_159_25562" x1="39.1606" y1="6.7025" x2="48.0812" y2="20.9431" gradientUnits="userSpaceOnUse">
<stop offset="0.125" stop-color="#7E1513"/>
<stop offset="1" stop-color="#FE3632"/>
</linearGradient>
<linearGradient id="paint5_linear_159_25562" x1="11.7644" y1="2.90937" x2="22.9119" y2="20.7113" gradientUnits="userSpaceOnUse">
<stop offset="0.125" stop-color="#7E1513"/>
<stop offset="1" stop-color="#E42622"/>
</linearGradient>
</defs>
</svg>
