<svg width="19" height="24" viewBox="0 0 19 24" fill="none" xmlns="http://www.w3.org/2000/svg">
<path d="M8 12C8.26522 12 8.51957 12.1054 8.70711 12.2929C8.89464 12.4804 9 12.7348 9 13C9 13.2652 8.89464 13.5196 8.70711 13.7071C8.51957 13.8946 8.26522 14 8 14H5C4.73478 14 4.48043 13.8946 4.29289 13.7071C4.10536 13.5196 4 13.2652 4 13C4 12.7348 4.10536 12.4804 4.29289 12.2929C4.48043 12.1054 4.73478 12 5 12H8ZM14 9C14 8.73478 13.8946 8.48043 13.7071 8.29289C13.5196 8.10536 13.2652 8 13 8H5C4.73478 8 4.48043 8.10536 4.29289 8.29289C4.10536 8.48043 4 8.73478 4 9C4 9.26522 4.10536 9.51957 4.29289 9.70711C4.48043 9.89464 4.73478 10 5 10H13C13.2652 10 13.5196 9.89464 13.7071 9.70711C13.8946 9.51957 14 9.26522 14 9ZM5 6H13C13.2652 6 13.5196 5.89464 13.7071 5.70711C13.8946 5.51957 14 5.26522 14 5C14 4.73478 13.8946 4.48043 13.7071 4.29289C13.5196 4.10536 13.2652 4 13 4H5C4.73478 4 4.48043 4.10536 4.29289 4.29289C4.10536 4.48043 4 4.73478 4 5C4 5.26522 4.10536 5.51957 4.29289 5.70711C4.48043 5.89464 4.73478 6 5 6ZM17 19.444V23.277C17.0001 23.4197 16.9578 23.5591 16.8786 23.6777C16.7994 23.7964 16.6868 23.8888 16.555 23.9434C16.4232 23.998 16.2781 24.0123 16.1382 23.9845C15.9983 23.9566 15.8698 23.8879 15.769 23.787L15 23.019L14.231 23.787C14.1302 23.8879 14.0017 23.9566 13.8618 23.9845C13.7219 24.0123 13.5768 23.998 13.445 23.9434C13.3132 23.8888 13.2006 23.7964 13.1214 23.6777C13.0422 23.5591 12.9999 23.4197 13 23.277V19.444C12.2373 19.0058 11.641 18.3277 11.3038 17.5154C10.9666 16.703 10.9076 15.8019 11.1358 14.9525C11.364 14.103 11.8667 13.3529 12.5656 12.8189C13.2646 12.2849 14.1204 11.997 15 12C15.338 12.0042 15.6741 12.0519 16 12.142V5C16 4.20435 15.6839 3.44129 15.1213 2.87868C14.5587 2.31607 13.7956 2 13 2H5C4.20435 2 3.44129 2.31607 2.87868 2.87868C2.31607 3.44129 2 4.20435 2 5V17C2 17.7956 2.31607 18.5587 2.87868 19.1213C3.44129 19.6839 4.20435 20 5 20H10C10.2652 20 10.5196 20.1054 10.7071 20.2929C10.8946 20.4804 11 20.7348 11 21C11 21.2652 10.8946 21.5196 10.7071 21.7071C10.5196 21.8946 10.2652 22 10 22H5C3.67441 21.9984 2.40356 21.4711 1.46622 20.5338C0.528882 19.5964 0.00158786 18.3256 0 17V5C0.00158786 3.67441 0.528882 2.40356 1.46622 1.46622C2.40356 0.528882 3.67441 0.00158786 5 0L13 0C14.3256 0.00158786 15.5964 0.528882 16.5338 1.46622C17.4711 2.40356 17.9984 3.67441 18 5V13.382C18.3917 13.8219 18.6801 14.3438 18.844 14.9096C19.0079 15.4753 19.0433 16.0706 18.9474 16.6518C18.8515 17.2329 18.6269 17.7853 18.2899 18.2684C17.953 18.7516 17.5122 19.1532 17 19.444ZM17 16C17 15.6044 16.8827 15.2178 16.6629 14.8889C16.4432 14.56 16.1308 14.3036 15.7654 14.1522C15.3999 14.0009 14.9978 13.9613 14.6098 14.0384C14.2219 14.1156 13.8655 14.3061 13.5858 14.5858C13.3061 14.8655 13.1156 15.2219 13.0384 15.6098C12.9613 15.9978 13.0009 16.3999 13.1522 16.7654C13.3036 17.1308 13.56 17.4432 13.8889 17.6629C14.2178 17.8827 14.6044 18 15 18C15.5304 18 16.0391 17.7893 16.4142 17.4142C16.7893 17.0391 17 16.5304 17 16Z" fill="#374957"/>
</svg>
