<svg width="10" height="9" viewBox="0 0 10 9" fill="none" xmlns="http://www.w3.org/2000/svg">
<path d="M0 4.27754V3.76115C0 3.39342 3.53925e-08 3.09443 0.0178835 2.8491C0.0363258 2.59537 0.0754459 2.37071 0.168216 2.15388C0.316441 1.80629 0.555884 1.50525 0.8612 1.28262C1.05121 1.14402 1.26134 1.05516 1.50501 0.980273C1.73973 0.907622 2.03033 0.840559 2.38912 0.757847L4.32389 0.310761C4.86821 0.185577 5.30412 0.0849823 5.65844 0.0352439C6.02002 -0.0150533 6.3436 -0.0206419 6.65209 0.0793937C7.13522 0.235393 7.5453 0.561469 7.80613 0.997039C7.8827 1.12558 7.93802 1.26082 7.97882 1.40501C8.46889 1.62341 8.85653 2.02145 9.06189 2.51713C9.15019 2.73062 9.18707 2.9564 9.20439 3.21124C9.22116 3.45266 9.22116 3.74774 9.22116 4.11156C9.38864 4.19076 9.53018 4.31591 9.6293 4.47243C9.72841 4.62895 9.78103 4.8104 9.78103 4.99567C9.78103 5.18093 9.72841 5.36239 9.6293 5.51891C9.53018 5.67543 9.38864 5.80058 9.22116 5.87978C9.22116 6.24304 9.22116 6.53868 9.20439 6.77954C9.18707 7.03494 9.15019 7.26016 9.06189 7.47421C8.95656 7.72855 8.80217 7.95965 8.60751 8.15431C8.41285 8.34897 8.18175 8.50337 7.9274 8.60869C7.71392 8.69699 7.48814 8.73387 7.2333 8.7512C6.98461 8.76796 6.68003 8.76796 6.30224 8.76796H3.08322C2.62943 8.76796 2.26282 8.76796 1.96662 8.74393C1.66093 8.71878 1.39267 8.66569 1.14454 8.53939C0.749943 8.33855 0.429093 8.0179 0.228014 7.62342C0.101712 7.37529 0.0491795 7.10704 0.0240309 6.8019C-1.04095e-08 6.50515 0 6.13853 0 5.68418V4.27754ZM4.49322 1.13284L4.09923 1.22338H6.30895C6.54646 1.22338 6.75436 1.22338 6.93822 1.22785C6.7907 1.06542 6.60323 0.944423 6.39446 0.876884C6.26145 0.833852 6.08429 0.822116 5.77412 0.865707C5.46116 0.909298 5.06158 1.00151 4.49266 1.13284M6.13682 2.06166H3.10166C2.62552 2.06166 2.293 2.06166 2.03424 2.0829C1.78108 2.10358 1.63522 2.1427 1.52512 2.19858C1.27384 2.32625 1.07299 2.53497 0.955089 2.79097C0.909821 2.89716 0.877966 3.03631 0.860083 3.25818L0.852818 3.35877C0.838287 3.60188 0.838287 3.90813 0.838287 4.32504V5.6663C0.838287 6.14301 0.838287 6.47497 0.859524 6.73372C0.880202 6.98688 0.919322 7.13274 0.975208 7.2434C1.09592 7.47979 1.28817 7.67204 1.52512 7.79275C1.63522 7.84864 1.78108 7.88776 2.0348 7.90844C2.293 7.92912 2.62552 7.92968 3.10166 7.92968H6.28716C6.68394 7.92968 6.96002 7.92967 7.17574 7.91459C7.38811 7.90006 7.51217 7.87323 7.60662 7.83411C7.75923 7.77092 7.89789 7.67828 8.01468 7.56148C8.13148 7.44469 8.22412 7.30603 8.28731 7.15342C8.32643 7.05897 8.35325 6.93547 8.36778 6.7231C8.38064 6.53309 8.38287 6.29669 8.38287 5.97367H7.6843C7.42492 5.97367 7.17616 5.87063 6.99275 5.68722C6.80934 5.50381 6.7063 5.25505 6.7063 4.99567C6.7063 4.73629 6.80934 4.48753 6.99275 4.30412C7.17616 4.12071 7.42492 4.01767 7.6843 4.01767H8.38287C8.38287 3.69465 8.38064 3.45881 8.36778 3.2688C8.35325 3.05643 8.32643 2.93236 8.28731 2.83792C8.22339 2.68366 8.1294 2.54367 8.0108 2.42613C7.8922 2.30859 7.75138 2.21585 7.59656 2.15332L7.51776 2.1332C7.25342 2.06558 6.87787 2.06166 6.13738 2.06166M7.54459 4.99567C7.54459 5.07279 7.60718 5.13538 7.6843 5.13538H8.80202C8.83907 5.13538 8.87461 5.12066 8.90081 5.09446C8.92701 5.06826 8.94173 5.03272 8.94173 4.99567C8.94173 4.95861 8.92701 4.92308 8.90081 4.89688C8.87461 4.87067 8.83907 4.85595 8.80202 4.85595H7.6843C7.64725 4.85595 7.61171 4.87067 7.58551 4.89688C7.55931 4.92308 7.54459 4.95861 7.54459 4.99567Z" fill="#7E1513"/>
</svg>
