<svg width="19" height="16" viewBox="0 0 19 16" fill="none" xmlns="http://www.w3.org/2000/svg">
<path d="M16 0C16.5304 0 17.0391 0.210714 17.4142 0.585786C17.7893 0.960859 18 1.46957 18 2V3H12C10.6739 3 9.40215 3.52678 8.46447 4.46447C7.52678 5.40215 7 6.67392 7 8C7 9.32608 7.52678 10.5979 8.46447 11.5355C9.40215 12.4732 10.6739 13 12 13H18V14C18 14.5304 17.7893 15.0391 17.4142 15.4142C17.0391 15.7893 16.5304 16 16 16H2C1.46957 16 0.960859 15.7893 0.585786 15.4142C0.210714 15.0391 0 14.5304 0 14V2C0 1.46957 0.210714 0.960859 0.585786 0.585786C0.960859 0.210714 1.46957 0 2 0H16ZM17 5C17.5304 5 18.0391 5.21071 18.4142 5.58579C18.7893 5.96086 19 6.46957 19 7V9C19 9.53043 18.7893 10.0391 18.4142 10.4142C18.0391 10.7893 17.5304 11 17 11H12C11.2044 11 10.4413 10.6839 9.87868 10.1213C9.31607 9.55871 9 8.79565 9 8C9 7.20435 9.31607 6.44129 9.87868 5.87868C10.4413 5.31607 11.2044 5 12 5H17ZM12 7C11.7348 7 11.4804 7.10536 11.2929 7.29289C11.1054 7.48043 11 7.73478 11 8C11 8.26522 11.1054 8.51957 11.2929 8.70711C11.4804 8.89464 11.7348 9 12 9C12.2652 9 12.5196 8.89464 12.7071 8.70711C12.8946 8.51957 13 8.26522 13 8C13 7.73478 12.8946 7.48043 12.7071 7.29289C12.5196 7.10536 12.2652 7 12 7Z" fill="#1F8CF9"/>
</svg>
