<svg width="21" height="21" viewBox="0 0 21 21" fill="none" xmlns="http://www.w3.org/2000/svg">
<path d="M20.1249 0.864251C19.815 0.555104 19.4405 0.318489 19.0282 0.171428C18.6159 0.0243665 18.1761 -0.0294839 17.7406 0.0137509C15.3798 0.242126 7.43131 1.23 4.30493 4.35638C2.83688 5.83483 1.94456 7.78861 1.78849 9.86626C1.63242 11.9439 2.22285 14.0091 3.45356 15.6903L0.384057 18.7589C0.137837 19.0051 -0.000488281 19.339 -0.000488281 19.6873C-0.000488281 20.0355 0.137837 20.3694 0.384057 20.6156C0.630278 20.8619 0.964224 21.0002 1.31243 21.0002C1.66064 21.0002 1.99459 20.8619 2.24081 20.6156L5.30943 17.5461C6.99061 18.7768 9.05577 19.3673 11.1334 19.2112C13.2111 19.0551 15.1649 18.1628 16.6433 16.6948C19.8134 13.5246 20.7698 5.59975 20.9868 3.24513C21.0279 2.80925 20.9719 2.3697 20.8229 1.95804C20.6738 1.54638 20.4355 1.17284 20.1249 0.864251V0.864251ZM14.7874 14.838C13.8029 15.8169 12.5147 16.4317 11.1344 16.5815C9.75418 16.7313 8.36404 16.4071 7.19243 15.6623L14.4908 8.36475C14.737 8.11853 14.8754 7.78458 14.8754 7.43638C14.8754 7.08817 14.737 6.75422 14.4908 6.508C14.2446 6.26178 13.9106 6.12346 13.5624 6.12346C13.2142 6.12346 12.8803 6.26178 12.6341 6.508L5.33743 13.8073C4.59255 12.6356 4.26836 11.2455 4.41815 9.86526C4.56795 8.48502 5.1828 7.19678 6.16168 6.21225C8.15668 4.21725 13.7821 3.03425 17.9943 2.62475C18.0453 2.61927 18.0968 2.62531 18.1451 2.64243C18.1934 2.65954 18.2373 2.68729 18.2734 2.72363C18.3107 2.7594 18.3392 2.80325 18.3568 2.8518C18.3744 2.90035 18.3806 2.9523 18.3749 3.00363C17.9856 7.19663 16.8139 12.8115 14.7874 14.838V14.838Z" fill="#7E1513"/>
</svg>
